<?xml version="1.0" encoding="UTF-8"?>
<!DOCTYPE svg PUBLIC "-//W3C//DTD SVG 1.1//EN" "http://www.w3.org/Graphics/SVG/1.1/DTD/svg11.dtd">
<svg xmlns="http://www.w3.org/2000/svg" version="1.1" width="500px" height="500px" style="shape-rendering:geometricPrecision; text-rendering:geometricPrecision; image-rendering:optimizeQuality; fill-rule:evenodd; clip-rule:evenodd" xmlns:xlink="http://www.w3.org/1999/xlink">
<g><path style="opacity:0.553" fill="#09d4cb" d="M 222.5,-0.5 C 240.167,-0.5 257.833,-0.5 275.5,-0.5C 320.674,4.88504 361.341,21.2184 397.5,48.5C 396.833,48.5 396.167,48.5 395.5,48.5C 394.609,47.8902 393.609,47.5569 392.5,47.5C 392.027,46.0937 391.027,45.427 389.5,45.5C 389.027,44.0937 388.027,43.427 386.5,43.5C 386.027,42.0937 385.027,41.427 383.5,41.5C 383.027,40.0937 382.027,39.427 380.5,39.5C 377.875,36.1848 374.542,33.8514 370.5,32.5C 365.421,29.6279 360.087,27.2945 354.5,25.5C 354.158,24.6618 353.492,24.3284 352.5,24.5C 351.177,22.3136 349.177,20.8136 346.5,20C 342.264,18.233 337.931,16.733 333.5,15.5C 330.785,13.9281 327.785,12.9281 324.5,12.5C 323.833,12.5 323.167,12.5 322.5,12.5C 321.508,12.6716 320.842,12.3382 320.5,11.5C 318.485,10.0762 316.152,9.40953 313.5,9.5C 310.873,8.90843 308.206,8.5751 305.5,8.5C 304.432,7.56552 303.099,7.23219 301.5,7.5C 299.585,7.78448 297.919,7.45115 296.5,6.5C 292.764,5.01086 288.764,4.3442 284.5,4.5C 282.052,3.52693 279.385,3.1936 276.5,3.5C 258.5,0.833333 240.5,0.833333 222.5,3.5C 219.615,3.1936 216.948,3.52693 214.5,4.5C 210.236,4.3442 206.236,5.01086 202.5,6.5C 199.482,6.70381 196.482,7.03714 193.5,7.5C 190.505,7.29379 187.838,7.96046 185.5,9.5C 182.848,9.40953 180.515,10.0762 178.5,11.5C 176.371,12.2028 174.371,13.2028 172.5,14.5C 170.139,14.6741 167.806,15.0074 165.5,15.5C 163.597,15.7959 161.93,16.4625 160.5,17.5C 159.07,18.5375 157.403,19.2041 155.5,19.5C 152.759,19.7073 150.426,20.7073 148.5,22.5C 148.158,23.3382 147.492,23.6716 146.5,23.5C 143.759,23.7073 141.426,24.7073 139.5,26.5C 132.371,30.5677 125.371,34.901 118.5,39.5C 117.29,39.9321 116.29,40.5987 115.5,41.5C 113.973,41.427 112.973,42.0937 112.5,43.5C 111.833,43.5 111.167,43.5 110.5,43.5C 108.596,43.7376 107.262,44.7376 106.5,46.5C 106.5,46.8333 106.5,47.1667 106.5,47.5C 103.518,49.4742 100.518,51.4742 97.5,53.5C 94.1125,54.3481 91.7791,56.3481 90.5,59.5C 86.9111,60.0922 84.5778,62.0922 83.5,65.5C 82.8333,65.5 82.5,65.8333 82.5,66.5C 76.887,69.1129 72.5537,73.1129 69.5,78.5C 67.5,80.5 65.5,82.5 63.5,84.5C 61.1782,85.8021 59.8449,87.8021 59.5,90.5C 57.1667,90.8333 55.8333,92.1667 55.5,94.5C 53.4131,95.5846 52.0798,97.2512 51.5,99.5C 51.5,99.8333 51.5,100.167 51.5,100.5C 48.9142,101.487 47.5809,103.487 47.5,106.5C 45.9519,106.821 45.2852,107.821 45.5,109.5C 44.0937,109.973 43.427,110.973 43.5,112.5C 41.336,114.822 39.6693,117.489 38.5,120.5C 37.0937,120.973 36.427,121.973 36.5,123.5C 36.1667,123.5 35.8333,123.5 35.5,123.5C 33.412,125.336 32.0787,127.669 31.5,130.5C 30.5903,133.992 28.9236,136.992 26.5,139.5C 24.1324,141.956 23.1324,144.956 23.5,148.5C 22.4335,150.964 21.1002,153.297 19.5,155.5C 17.6001,158.518 16.2667,161.851 15.5,165.5C 15.1667,167.5 14.8333,169.5 14.5,171.5C 13.0762,173.515 12.4095,175.848 12.5,178.5C 11.0689,178.881 10.2355,179.881 10,181.5C 9.50258,184.146 9.33591,186.813 9.5,189.5C 8.56552,190.568 8.23219,191.901 8.5,193.5C 7.83333,194.833 7.16667,196.167 6.5,197.5C 5.09659,200.909 4.42993,204.575 4.5,208.5C 0.5,235.833 0.5,263.167 4.5,290.5C 4.6253,295.794 5.6253,300.794 7.5,305.5C 7.29379,308.495 7.96046,311.162 9.5,313.5C 9.40953,316.152 10.0762,318.485 11.5,320.5C 12.3382,320.842 12.6716,321.508 12.5,322.5C 13.4144,326.936 15.081,330.936 17.5,334.5C 17.5,334.833 17.5,335.167 17.5,335.5C 18.1667,338.167 18.8333,340.833 19.5,343.5C 19.7073,346.241 20.7073,348.574 22.5,350.5C 22.8333,350.5 23.1667,350.5 23.5,350.5C 23.1324,354.044 24.1324,357.044 26.5,359.5C 28.5944,362.565 30.5944,365.565 32.5,368.5C 32.1663,371.491 33.1663,373.824 35.5,375.5C 35.8333,375.5 36.1667,375.5 36.5,375.5C 36.7497,377.674 37.7497,379.341 39.5,380.5C 39.427,382.027 40.0937,383.027 41.5,383.5C 41.427,385.027 42.0937,386.027 43.5,386.5C 43.427,388.027 44.0937,389.027 45.5,389.5C 46.1667,390.5 46.8333,391.5 47.5,392.5C 47.427,394.027 48.0937,395.027 49.5,395.5C 50.1667,396.833 50.8333,398.167 51.5,399.5C 52.0798,401.749 53.4131,403.415 55.5,404.5C 55.8333,406.833 57.1667,408.167 59.5,408.5C 59.8449,411.198 61.1782,413.198 63.5,414.5C 65.1394,416.806 67.1394,418.806 69.5,420.5C 71.5,424.5 74.5,427.5 78.5,429.5C 79.5846,431.587 81.2512,432.92 83.5,433.5C 83.8588,435.371 84.8588,436.871 86.5,438C 89.0652,440.08 91.7318,441.913 94.5,443.5C 95.1667,444.167 95.8333,444.833 96.5,445.5C 96.9731,446.906 97.9731,447.573 99.5,447.5C 101.833,448.833 104.167,450.167 106.5,451.5C 106.821,453.048 107.821,453.715 109.5,453.5C 109.973,454.906 110.973,455.573 112.5,455.5C 112.973,456.906 113.973,457.573 115.5,457.5C 116.29,458.401 117.29,459.068 118.5,459.5C 118.973,460.906 119.973,461.573 121.5,461.5C 121.5,462.833 122.167,463.5 123.5,463.5C 124.167,463.5 124.5,463.833 124.5,464.5C 126.181,466.008 128.181,467.008 130.5,467.5C 132.336,469.588 134.669,470.921 137.5,471.5C 139.746,472.455 142.079,473.122 144.5,473.5C 145.167,474.167 145.833,474.833 146.5,475.5C 149.088,477.625 152.088,478.958 155.5,479.5C 157.117,480.038 158.784,480.371 160.5,480.5C 161.802,482.028 163.469,483.028 165.5,483.5C 168.215,485.072 171.215,486.072 174.5,486.5C 176.515,487.924 178.848,488.59 181.5,488.5C 182.833,488.5 184.167,488.5 185.5,488.5C 189.163,490.416 193.163,491.416 197.5,491.5C 198.919,492.451 200.585,492.784 202.5,492.5C 204.167,493.167 205.833,493.833 207.5,494.5C 212.269,495.889 217.269,496.556 222.5,496.5C 240.5,497.833 258.5,497.833 276.5,496.5C 281.731,496.556 286.731,495.889 291.5,494.5C 293.167,493.833 294.833,493.167 296.5,492.5C 297.919,491.549 299.585,491.216 301.5,491.5C 304.518,491.296 307.518,490.963 310.5,490.5C 313.577,490.821 315.91,489.821 317.5,487.5C 319.292,487.634 320.958,487.301 322.5,486.5C 324.153,486.34 325.486,485.674 326.5,484.5C 329.152,484.59 331.485,483.924 333.5,482.5C 334.167,482.5 334.833,482.5 335.5,482.5C 337.786,482.405 339.786,481.738 341.5,480.5C 341.842,479.662 342.508,479.328 343.5,479.5C 346.912,478.958 349.912,477.625 352.5,475.5C 353.167,474.833 353.833,474.167 354.5,473.5C 356.921,473.122 359.254,472.455 361.5,471.5C 364.331,470.921 366.664,469.588 368.5,467.5C 371.824,465.817 374.824,463.817 377.5,461.5C 379.027,461.573 380.027,460.906 380.5,459.5C 382.027,459.573 383.027,458.906 383.5,457.5C 385.027,457.573 386.027,456.906 386.5,455.5C 388.027,455.573 389.027,454.906 389.5,453.5C 391.179,453.715 392.179,453.048 392.5,451.5C 393.391,450.89 394.391,450.557 395.5,450.5C 397.595,449.588 399.595,448.421 401.5,447C 402.252,446.329 402.586,445.496 402.5,444.5C 403.167,444.167 403.833,443.833 404.5,443.5C 409.719,440.954 414.052,437.287 417.5,432.5C 423.167,428.833 427.833,424.167 431.5,418.5C 431.5,417.833 431.833,417.5 432.5,417.5C 437.287,414.052 440.954,409.719 443.5,404.5C 443.5,403.833 443.833,403.5 444.5,403.5C 446.262,402.738 447.262,401.404 447.5,399.5C 447.5,399.167 447.5,398.833 447.5,398.5C 451.007,396.634 453.007,393.634 453.5,389.5C 454.906,389.027 455.573,388.027 455.5,386.5C 456.906,386.027 457.573,385.027 457.5,383.5C 459.218,381.777 460.551,379.777 461.5,377.5C 465.802,372.922 469.136,367.589 471.5,361.5C 471.66,359.847 472.326,358.514 473.5,357.5C 476.018,353.123 478.018,348.456 479.5,343.5C 479.328,342.508 479.662,341.842 480.5,341.5C 483.269,336.199 485.269,330.532 486.5,324.5C 488.258,321.146 489.258,317.479 489.5,313.5C 490.092,310.873 490.425,308.206 490.5,305.5C 491.434,304.432 491.768,303.099 491.5,301.5C 492.451,300.081 492.784,298.415 492.5,296.5C 493.531,294.039 494.198,291.373 494.5,288.5C 494.5,287.167 494.5,285.833 494.5,284.5C 497.999,263.878 498.332,243.212 495.5,222.5C 495.249,217.493 494.916,212.493 494.5,207.5C 494.493,204.962 494.159,202.462 493.5,200C 493.316,198.624 492.649,197.791 491.5,197.5C 491.845,191.438 490.845,185.605 488.5,180C 488.164,178.97 487.497,178.47 486.5,178.5C 486.5,177.167 486.5,175.833 486.5,174.5C 485.819,169.08 483.819,164.414 480.5,160.5C 480.371,158.784 480.038,157.117 479.5,155.5C 479.293,152.759 478.293,150.426 476.5,148.5C 476.167,148.5 475.833,148.5 475.5,148.5C 475.34,146.847 474.674,145.514 473.5,144.5C 472.873,140.58 471.207,137.247 468.5,134.5C 467.258,130.345 465.258,126.678 462.5,123.5C 461.736,120.982 460.736,118.649 459.5,116.5C 459.5,115.833 459.5,115.167 459.5,114.5C 481.53,147.585 494.863,183.918 499.5,223.5C 499.5,240.833 499.5,258.167 499.5,275.5C 485.513,372.651 433.846,441.485 344.5,482C 322.126,490.843 299.126,496.676 275.5,499.5C 257.833,499.5 240.167,499.5 222.5,499.5C 129.749,486.556 62.5819,438.223 21,354.5C 9.9057,329.113 2.73903,302.78 -0.5,275.5C -0.5,258.167 -0.5,240.833 -0.5,223.5C 12.594,127.122 63.2606,58.622 151.5,18C 174.511,8.83176 198.178,2.66509 222.5,-0.5 Z"/></g>
<g><path style="opacity:0.902" fill="#08cbc7" d="M 276.5,3.5 C 258.5,2.16667 240.5,2.16667 222.5,3.5C 240.5,0.833333 258.5,0.833333 276.5,3.5 Z"/></g>
<g><path style="opacity:0.906" fill="#07c2c2" d="M 276.5,3.5 C 276.5,3.83333 276.5,4.16667 276.5,4.5C 258.5,4.5 240.5,4.5 222.5,4.5C 222.5,4.16667 222.5,3.83333 222.5,3.5C 240.5,2.16667 258.5,2.16667 276.5,3.5 Z"/></g>
<g><path style="opacity:0.906" fill="#07c6c4" d="M 222.5,3.5 C 222.5,3.83333 222.5,4.16667 222.5,4.5C 220.052,5.47307 217.385,5.8064 214.5,5.5C 214.5,5.16667 214.5,4.83333 214.5,4.5C 216.948,3.52693 219.615,3.1936 222.5,3.5 Z"/></g>
<g><path style="opacity:0.91" fill="#06bdc0" d="M 222.5,4.5 C 240.5,4.5 258.5,4.5 276.5,4.5C 278.948,5.47307 281.615,5.8064 284.5,5.5C 286.265,6.46138 288.265,6.79472 290.5,6.5C 291.167,7.16667 291.833,7.83333 292.5,8.5C 265.879,4.92535 239.213,4.59202 212.5,7.5C 213.167,6.83333 213.833,6.16667 214.5,5.5C 217.385,5.8064 220.052,5.47307 222.5,4.5 Z"/></g>
<g><path style="opacity:0.906" fill="#07c6c4" d="M 276.5,3.5 C 279.385,3.1936 282.052,3.52693 284.5,4.5C 284.5,4.83333 284.5,5.16667 284.5,5.5C 281.615,5.8064 278.948,5.47307 276.5,4.5C 276.5,4.16667 276.5,3.83333 276.5,3.5 Z"/></g>
<g><path style="opacity:0.904" fill="#08cac6" d="M 214.5,4.5 C 214.5,4.83333 214.5,5.16667 214.5,5.5C 210.5,5.83333 206.5,6.16667 202.5,6.5C 206.236,5.01086 210.236,4.3442 214.5,4.5 Z"/></g>
<g><path style="opacity:0.912" fill="#05b7bd" d="M 292.5,8.5 C 292.833,8.5 293.167,8.5 293.5,8.5C 313.796,12.5976 333.462,18.931 352.5,27.5C 353.391,28.1098 354.391,28.4431 355.5,28.5C 361.001,31.7511 366.667,34.7511 372.5,37.5C 372.973,38.9063 373.973,39.573 375.5,39.5C 377.822,41.664 380.489,43.3307 383.5,44.5C 384.29,45.4013 385.29,46.0679 386.5,46.5C 394.645,53.0735 402.978,59.4068 411.5,65.5C 417.167,71.8333 423.167,77.8333 429.5,83.5C 430.5,85.1667 431.833,86.5 433.5,87.5C 434.757,90.4274 436.757,92.7607 439.5,94.5C 443.925,101.02 448.592,107.353 453.5,113.5C 453.833,114.167 454.167,114.833 454.5,115.5C 455.669,118.511 457.336,121.178 459.5,123.5C 459.427,125.027 460.094,126.027 461.5,126.5C 468.283,139.204 474.283,152.204 479.5,165.5C 483.814,178.766 487.481,192.099 490.5,205.5C 490.5,205.833 490.5,206.167 490.5,206.5C 492.529,220.789 493.862,235.123 494.5,249.5C 493.862,263.877 492.529,278.211 490.5,292.5C 490.5,292.833 490.5,293.167 490.5,293.5C 488.015,303.768 485.349,314.101 482.5,324.5C 482.5,324.833 482.5,325.167 482.5,325.5C 479.325,333.012 476.325,340.679 473.5,348.5C 470.533,354.435 467.533,360.435 464.5,366.5C 462.992,368.181 461.992,370.181 461.5,372.5C 459,375.494 457,378.827 455.5,382.5C 453.478,384.531 451.811,386.865 450.5,389.5C 433.167,412.833 412.833,433.167 389.5,450.5C 386.865,451.811 384.531,453.478 382.5,455.5C 379.24,456.774 376.24,458.44 373.5,460.5C 363.047,466.393 352.38,471.727 341.5,476.5C 297.755,493.324 252.755,497.99 206.5,490.5C 206.167,490.5 205.833,490.5 205.5,490.5C 197.315,488.372 188.982,486.372 180.5,484.5C 169.097,480.584 157.763,476.251 146.5,471.5C 144.95,470.559 143.284,469.893 141.5,469.5C 136.667,466.582 131.667,463.916 126.5,461.5C 126.5,460.833 126.167,460.5 125.5,460.5C 112.304,452.313 99.6373,443.313 87.5,433.5C 87.5,432.833 87.1667,432.5 86.5,432.5C 81.1667,426.5 75.5,420.833 69.5,415.5C 66.9587,411.748 63.9587,408.415 60.5,405.5C 53.8306,396.158 47.1639,386.825 40.5,377.5C 39.6618,377.158 39.3284,376.492 39.5,375.5C 31.405,361.312 24.405,346.645 18.5,331.5C 17.8699,327.952 16.8699,324.619 15.5,321.5C 6.90084,291.774 3.56751,261.441 5.5,230.5C 6.49949,222.505 7.49949,214.505 8.5,206.5C 8.5,206.167 8.5,205.833 8.5,205.5C 14.4808,176.562 24.8142,149.229 39.5,123.5C 39.3284,122.508 39.6618,121.842 40.5,121.5C 42.3264,119.853 43.6597,117.853 44.5,115.5C 45.9063,115.027 46.573,114.027 46.5,112.5C 58.4072,96.0854 71.7406,80.752 86.5,66.5C 89.4474,65.2195 91.7807,63.2195 93.5,60.5C 99.1215,56.8777 104.455,52.8777 109.5,48.5C 111.027,48.573 112.027,47.9063 112.5,46.5C 113.71,46.0679 114.71,45.4013 115.5,44.5C 117.853,43.6597 119.853,42.3264 121.5,40.5C 121.842,39.6618 122.508,39.3284 123.5,39.5C 141.856,28.9908 161.19,20.6574 181.5,14.5C 189.608,12.473 197.608,10.473 205.5,8.5C 207.95,8.70197 210.283,8.36863 212.5,7.5C 239.213,4.59202 265.879,4.92535 292.5,8.5 Z M 237.5,113.5 C 295.392,111.022 339.225,134.355 369,183.5C 391,227.5 391,271.5 369,315.5C 339.249,364.797 295.416,387.964 237.5,385C 189.89,379.794 154.057,356.627 130,315.5C 108,271.5 108,227.5 130,183.5C 154.268,142.447 190.102,119.113 237.5,113.5 Z"/></g>
<g><path style="opacity:0.904" fill="#07c9c6" d="M 284.5,4.5 C 288.764,4.3442 292.764,5.01086 296.5,6.5C 294.5,6.5 292.5,6.5 290.5,6.5C 288.265,6.79472 286.265,6.46138 284.5,5.5C 284.5,5.16667 284.5,4.83333 284.5,4.5 Z"/></g>
<g><path style="opacity:0.908" fill="#07c1c2" d="M 214.5,5.5 C 213.833,6.16667 213.167,6.83333 212.5,7.5C 210.283,8.36863 207.95,8.70197 205.5,8.5C 204.5,8.5 203.5,8.5 202.5,8.5C 202.5,7.83333 202.5,7.16667 202.5,6.5C 206.5,6.16667 210.5,5.83333 214.5,5.5 Z"/></g>
<g><path style="opacity:0.916" fill="#05b4bc" d="M 227.5,7.5 C 312.501,2.76723 382.667,32.4339 438,96.5C 494.468,171.437 506.468,253.103 474,341.5C 438.955,421.205 378.789,470.038 293.5,488C 193.779,502.223 113.279,469.723 52,390.5C 3.2298,317.573 -5.7702,239.907 25,157.5C 64.7958,70.1776 132.296,20.1776 227.5,7.5 Z M 237.5,113.5 C 190.102,119.113 154.268,142.447 130,183.5C 108,227.5 108,271.5 130,315.5C 154.057,356.627 189.89,379.794 237.5,385C 295.416,387.964 339.249,364.797 369,315.5C 391,271.5 391,227.5 369,183.5C 339.225,134.355 295.392,111.022 237.5,113.5 Z"/></g>
<g><path style="opacity:0.906" fill="#07c2c2" d="M 290.5,6.5 C 292.5,6.5 294.5,6.5 296.5,6.5C 297.919,7.45115 299.585,7.78448 301.5,7.5C 301.5,7.83333 301.5,8.16667 301.5,8.5C 298.833,8.5 296.167,8.5 293.5,8.5C 293.167,8.5 292.833,8.5 292.5,8.5C 291.833,7.83333 291.167,7.16667 290.5,6.5 Z"/></g>
<g><path style="opacity:0.902" fill="#08cfc9" d="M 193.5,7.5 C 192.329,8.34464 190.995,9.01131 189.5,9.5C 188.167,9.5 186.833,9.5 185.5,9.5C 187.838,7.96046 190.505,7.29379 193.5,7.5 Z"/></g>
<g><path style="opacity:0.906" fill="#07c7c5" d="M 202.5,6.5 C 202.5,7.16667 202.5,7.83333 202.5,8.5C 198.14,9.00669 193.807,9.67336 189.5,10.5C 189.5,10.1667 189.5,9.83333 189.5,9.5C 190.995,9.01131 192.329,8.34464 193.5,7.5C 196.482,7.03714 199.482,6.70381 202.5,6.5 Z"/></g>
<g><path style="opacity:0.921" fill="#05b3bb" d="M 244.5,8.5 C 327.295,9.48171 393.795,42.4817 444,107.5C 495.86,184.062 503.86,265.062 468,350.5C 429.447,428.015 367.28,473.848 281.5,488C 188.08,497.02 112.58,464.853 55,391.5C 4.83099,317.648 -4.16901,238.982 28,155.5C 61.3694,82.0419 117.203,35.2086 195.5,15C 211.825,11.6152 228.158,9.44857 244.5,8.5 Z M 237.5,113.5 C 190.102,119.113 154.268,142.447 130,183.5C 108,227.5 108,271.5 130,315.5C 154.057,356.627 189.89,379.794 237.5,385C 295.416,387.964 339.249,364.797 369,315.5C 391,271.5 391,227.5 369,183.5C 339.225,134.355 295.392,111.022 237.5,113.5 Z"/></g>
<g><path style="opacity:0.906" fill="#07c6c4" d="M 301.5,7.5 C 303.099,7.23219 304.432,7.56552 305.5,8.5C 305.5,8.83333 305.5,9.16667 305.5,9.5C 303.901,9.76781 302.568,9.43448 301.5,8.5C 301.5,8.16667 301.5,7.83333 301.5,7.5 Z"/></g>
<g><path style="opacity:0.91" fill="#06bfc1" d="M 293.5,8.5 C 296.167,8.5 298.833,8.5 301.5,8.5C 302.568,9.43448 303.901,9.76781 305.5,9.5C 307.099,9.23219 308.432,9.56552 309.5,10.5C 313.978,12.1231 318.645,13.4565 323.5,14.5C 324.5,14.5 325.5,14.5 326.5,14.5C 326.47,15.4972 326.97,16.1639 328,16.5C 332.044,18.2751 336.211,19.6084 340.5,20.5C 344.116,21.3143 347.449,22.6477 350.5,24.5C 351.167,25.5 351.833,26.5 352.5,27.5C 333.462,18.931 313.796,12.5976 293.5,8.5 Z"/></g>
<g><path style="opacity:0.905" fill="#08cac6" d="M 305.5,9.5 C 305.5,9.16667 305.5,8.83333 305.5,8.5C 308.206,8.5751 310.873,8.90843 313.5,9.5C 313.5,9.83333 313.5,10.1667 313.5,10.5C 312.167,10.5 310.833,10.5 309.5,10.5C 308.432,9.56552 307.099,9.23219 305.5,9.5 Z"/></g>
<g><path style="opacity:0.903" fill="#08d0c9" d="M 185.5,9.5 C 183.485,10.9238 181.152,11.5905 178.5,11.5C 180.515,10.0762 182.848,9.40953 185.5,9.5 Z"/></g>
<g><path style="opacity:0.91" fill="#08d0c9" d="M 313.5,10.5 C 313.5,10.1667 313.5,9.83333 313.5,9.5C 316.152,9.40953 318.485,10.0762 320.5,11.5C 318.139,11.3259 315.806,10.9926 313.5,10.5 Z"/></g>
<g><path style="opacity:0.906" fill="#07c7c5" d="M 185.5,9.5 C 186.833,9.5 188.167,9.5 189.5,9.5C 189.5,9.83333 189.5,10.1667 189.5,10.5C 186.833,11.5 184.167,12.5 181.5,13.5C 178.455,13.5079 175.455,13.8413 172.5,14.5C 174.371,13.2028 176.371,12.2028 178.5,11.5C 181.152,11.5905 183.485,10.9238 185.5,9.5 Z"/></g>
<g><path style="opacity:0.91" fill="#06bdc0" d="M 202.5,8.5 C 203.5,8.5 204.5,8.5 205.5,8.5C 197.608,10.473 189.608,12.473 181.5,14.5C 181.5,14.1667 181.5,13.8333 181.5,13.5C 184.167,12.5 186.833,11.5 189.5,10.5C 193.807,9.67336 198.14,9.00669 202.5,8.5 Z"/></g>
<g><path style="opacity:0.922" fill="#05b4bc" d="M 239.5,11.5 C 334.323,11.6411 406.49,51.6411 456,131.5C 499.606,214.682 497.606,296.682 450,377.5C 402.105,447.879 335.272,484.546 249.5,487.5C 168.221,484.782 103.388,451.116 55,386.5C 7.11331,313.728 -0.886686,236.728 31,155.5C 64.2171,83.9608 119.05,38.1275 195.5,18C 210.171,14.8362 224.837,12.6695 239.5,11.5 Z M 237.5,113.5 C 190.102,119.113 154.268,142.447 130,183.5C 108,227.5 108,271.5 130,315.5C 154.057,356.627 189.89,379.794 237.5,385C 295.416,387.964 339.249,364.797 369,315.5C 391,271.5 391,227.5 369,183.5C 339.225,134.355 295.392,111.022 237.5,113.5 Z"/></g>
<g><path style="opacity:0.906" fill="#07c6c4" d="M 309.5,10.5 C 310.833,10.5 312.167,10.5 313.5,10.5C 315.806,10.9926 318.139,11.3259 320.5,11.5C 320.842,12.3382 321.508,12.6716 322.5,12.5C 322.833,13.1667 323.167,13.8333 323.5,14.5C 318.645,13.4565 313.978,12.1231 309.5,10.5 Z"/></g>
<g><path style="opacity:0.903" fill="#08cac6" d="M 322.5,12.5 C 323.167,12.5 323.833,12.5 324.5,12.5C 325.167,13.1667 325.833,13.8333 326.5,14.5C 325.5,14.5 324.5,14.5 323.5,14.5C 323.167,13.8333 322.833,13.1667 322.5,12.5 Z"/></g>
<g><path style="opacity:0.91" fill="#08d1ca" d="M 324.5,12.5 C 327.785,12.9281 330.785,13.9281 333.5,15.5C 331.139,15.3259 328.806,14.9926 326.5,14.5C 325.833,13.8333 325.167,13.1667 324.5,12.5 Z"/></g>
<g><path style="opacity:0.929" fill="#05b8bd" d="M 241.5,14.5 C 330.521,15.1516 399.688,52.1516 449,125.5C 496.333,208.167 496.333,290.833 449,373.5C 401.736,444.397 335.236,481.397 249.5,484.5C 161.268,481.32 93.7677,442.653 47,368.5C 4.09304,290 3.75971,211.333 46,132.5C 90.8199,59.8251 155.987,20.4917 241.5,14.5 Z M 237.5,113.5 C 190.102,119.113 154.268,142.447 130,183.5C 108,227.5 108,271.5 130,315.5C 154.057,356.627 189.89,379.794 237.5,385C 295.416,387.964 339.249,364.797 369,315.5C 391,271.5 391,227.5 369,183.5C 339.225,134.355 295.392,111.022 237.5,113.5 Z"/></g>
<g><path style="opacity:0.904" fill="#08cac6" d="M 172.5,14.5 C 170.064,15.871 167.397,16.871 164.5,17.5C 164.833,16.8333 165.167,16.1667 165.5,15.5C 167.806,15.0074 170.139,14.6741 172.5,14.5 Z"/></g>
<g><path style="opacity:0.902" fill="#08d0c9" d="M 165.5,15.5 C 165.167,16.1667 164.833,16.8333 164.5,17.5C 164.167,17.5 163.833,17.5 163.5,17.5C 162.5,17.5 161.5,17.5 160.5,17.5C 161.93,16.4625 163.597,15.7959 165.5,15.5 Z"/></g>
<g><path style="opacity:0.906" fill="#07c5c3" d="M 326.5,14.5 C 328.806,14.9926 331.139,15.3259 333.5,15.5C 335.455,17.7056 337.788,19.3722 340.5,20.5C 336.211,19.6084 332.044,18.2751 328,16.5C 326.97,16.1639 326.47,15.4972 326.5,14.5 Z"/></g>
<g><path style="opacity:0.903" fill="#08d1ca" d="M 155.5,19.5 C 153.574,21.2927 151.241,22.2927 148.5,22.5C 150.426,20.7073 152.759,19.7073 155.5,19.5 Z"/></g>
<g><path style="opacity:0.905" fill="#08cec8" d="M 333.5,15.5 C 337.931,16.733 342.264,18.233 346.5,20C 349.177,20.8136 351.177,22.3136 352.5,24.5C 351.833,24.5 351.167,24.5 350.5,24.5C 347.449,22.6477 344.116,21.3143 340.5,20.5C 337.788,19.3722 335.455,17.7056 333.5,15.5 Z"/></g>
<g><path style="opacity:0.902" fill="#09d1ca" d="M 146.5,23.5 C 144.574,25.2927 142.241,26.2927 139.5,26.5C 141.426,24.7073 143.759,23.7073 146.5,23.5 Z"/></g>
<g><path style="opacity:0.938" fill="#06bdc0" d="M 232.5,27.5 C 316.055,24.2521 382.555,55.9188 432,122.5C 471.218,181.816 481.218,245.816 462,314.5C 437.5,388.333 388.333,437.5 314.5,462C 237.352,482.972 167.686,468.638 105.5,419C 47.2272,366.554 21.7272,301.054 29,222.5C 40.2587,146.748 79.0921,90.2475 145.5,53C 173.025,39.0402 202.025,30.5402 232.5,27.5 Z M 237.5,113.5 C 190.102,119.113 154.268,142.447 130,183.5C 108,227.5 108,271.5 130,315.5C 154.057,356.627 189.89,379.794 237.5,385C 295.416,387.964 339.249,364.797 369,315.5C 391,271.5 391,227.5 369,183.5C 339.225,134.355 295.392,111.022 237.5,113.5 Z"/></g>
<g><path style="opacity:0.91" fill="#07c2c2" d="M 350.5,24.5 C 351.167,24.5 351.833,24.5 352.5,24.5C 353.492,24.3284 354.158,24.6618 354.5,25.5C 355.833,26.5 357.167,27.5 358.5,28.5C 357.5,28.5 356.5,28.5 355.5,28.5C 354.391,28.4431 353.391,28.1098 352.5,27.5C 351.833,26.5 351.167,25.5 350.5,24.5 Z"/></g>
<g><path style="opacity:0.91" fill="#06bfc1" d="M 181.5,13.5 C 181.5,13.8333 181.5,14.1667 181.5,14.5C 161.19,20.6574 141.856,28.9908 123.5,39.5C 123.833,38.8333 124.167,38.1667 124.5,37.5C 136.36,30.0162 149.026,24.0162 162.5,19.5C 163.298,19.0431 163.631,18.3764 163.5,17.5C 163.833,17.5 164.167,17.5 164.5,17.5C 167.397,16.871 170.064,15.871 172.5,14.5C 175.455,13.8413 178.455,13.5079 181.5,13.5 Z"/></g>
<g><path style="opacity:0.904" fill="#07c8c5" d="M 354.5,25.5 C 360.087,27.2945 365.421,29.6279 370.5,32.5C 370.557,33.609 370.89,34.609 371.5,35.5C 367,33.4174 362.666,31.0841 358.5,28.5C 357.167,27.5 355.833,26.5 354.5,25.5 Z"/></g>
<g><path style="opacity:0.91" fill="#06bec0" d="M 355.5,28.5 C 356.5,28.5 357.5,28.5 358.5,28.5C 362.666,31.0841 367,33.4174 371.5,35.5C 371.833,36.1667 372.167,36.8333 372.5,37.5C 366.667,34.7511 361.001,31.7511 355.5,28.5 Z"/></g>
<g><path style="opacity:0.906" fill="#07c7c5" d="M 160.5,17.5 C 161.5,17.5 162.5,17.5 163.5,17.5C 163.631,18.3764 163.298,19.0431 162.5,19.5C 149.026,24.0162 136.36,30.0162 124.5,37.5C 122.5,38.1667 120.5,38.8333 118.5,39.5C 125.371,34.901 132.371,30.5677 139.5,26.5C 142.241,26.2927 144.574,25.2927 146.5,23.5C 147.492,23.6716 148.158,23.3382 148.5,22.5C 151.241,22.2927 153.574,21.2927 155.5,19.5C 157.403,19.2041 159.07,18.5375 160.5,17.5 Z"/></g>
<g><path style="opacity:0.9" fill="#08cec8" d="M 370.5,32.5 C 374.542,33.8514 377.875,36.1848 380.5,39.5C 379.833,39.5 379.167,39.5 378.5,39.5C 376.664,37.412 374.331,36.0787 371.5,35.5C 370.89,34.609 370.557,33.609 370.5,32.5 Z"/></g>
<g><path style="opacity:0.944" fill="#07c0c1" d="M 399.5,396.5 C 458.954,329.719 473.454,254.053 443,169.5C 416.017,108.183 370.517,67.6831 306.5,48C 234.424,29.8573 169.757,44.1907 112.5,91C 49.4448,150.183 27.9448,222.016 48,306.5C 66.812,368.647 105.645,413.481 164.5,441C 233.04,468.778 299.04,463.778 362.5,426C 374.437,417.874 385.77,409.041 396.5,399.5C 365.996,429.924 329.329,449.09 286.5,457C 202.702,468.633 134.202,441.8 81,376.5C 38.0162,315.62 28.0162,249.62 51,178.5C 76.3017,113.865 121.802,70.3648 187.5,48C 260.97,27.8931 327.303,41.5597 386.5,89C 450.118,147.865 472.285,219.698 453,304.5C 443.187,340.073 425.353,370.74 399.5,396.5 Z M 237.5,113.5 C 190.102,119.113 154.268,142.447 130,183.5C 108,227.5 108,271.5 130,315.5C 154.057,356.627 189.89,379.794 237.5,385C 295.416,387.964 339.249,364.797 369,315.5C 391,271.5 391,227.5 369,183.5C 339.225,134.355 295.392,111.022 237.5,113.5 Z"/></g>
<g><path style="opacity:0.91" fill="#06bdc0" d="M 372.5,37.5 C 374.027,37.427 375.027,38.0937 375.5,39.5C 373.973,39.573 372.973,38.9063 372.5,37.5 Z"/></g>
<g><path style="opacity:0.906" fill="#07c3c3" d="M 371.5,35.5 C 374.331,36.0787 376.664,37.412 378.5,39.5C 377.5,39.5 376.5,39.5 375.5,39.5C 375.027,38.0937 374.027,37.427 372.5,37.5C 372.167,36.8333 371.833,36.1667 371.5,35.5 Z"/></g>
<g><path style="opacity:0.906" fill="#07c4c3" d="M 378.5,39.5 C 379.167,39.5 379.833,39.5 380.5,39.5C 380.833,40.1667 381.167,40.8333 381.5,41.5C 379.973,41.573 378.973,40.9063 378.5,39.5 Z"/></g>
<g><path style="opacity:0.945" fill="#07c0c1" d="M 399.5,396.5 C 398.833,397.833 397.833,398.833 396.5,399.5C 385.77,409.041 374.437,417.874 362.5,426C 299.04,463.778 233.04,468.778 164.5,441C 105.645,413.481 66.812,368.647 48,306.5C 27.9448,222.016 49.4448,150.183 112.5,91C 169.757,44.1907 234.424,29.8573 306.5,48C 370.517,67.6831 416.017,108.183 443,169.5C 473.454,254.053 458.954,329.719 399.5,396.5 Z M 237.5,113.5 C 190.102,119.113 154.268,142.447 130,183.5C 108,227.5 108,271.5 130,315.5C 154.057,356.627 189.89,379.794 237.5,385C 295.416,387.964 339.249,364.797 369,315.5C 391,271.5 391,227.5 369,183.5C 339.225,134.355 295.392,111.022 237.5,113.5 Z"/></g>
<g><path style="opacity:0.91" fill="#06bdc0" d="M 375.5,39.5 C 376.5,39.5 377.5,39.5 378.5,39.5C 378.973,40.9063 379.973,41.573 381.5,41.5C 382.167,42.5 382.833,43.5 383.5,44.5C 380.489,43.3307 377.822,41.664 375.5,39.5 Z"/></g>
<g><path style="opacity:0.904" fill="#08cac6" d="M 380.5,39.5 C 382.027,39.427 383.027,40.0937 383.5,41.5C 382.833,41.5 382.167,41.5 381.5,41.5C 381.167,40.8333 380.833,40.1667 380.5,39.5 Z"/></g>
<g><path style="opacity:0.904" fill="#08c9c6" d="M 115.5,41.5 C 115.027,42.9063 114.027,43.573 112.5,43.5C 112.973,42.0937 113.973,41.427 115.5,41.5 Z"/></g>
<g><path style="opacity:0.952" fill="#07c4c3" d="M 236.5,42.5 C 317.327,40.6594 380.161,72.9928 425,139.5C 458.944,196.871 465.277,257.205 444,320.5C 418.871,384.296 373.704,426.796 308.5,448C 235.618,467.108 170.285,452.774 112.5,405C 53.9029,349.534 32.4029,282.034 48,202.5C 68.9485,124.885 117.782,74.0514 194.5,50C 208.446,46.3743 222.446,43.8743 236.5,42.5 Z M 237.5,113.5 C 190.102,119.113 154.268,142.447 130,183.5C 108,227.5 108,271.5 130,315.5C 154.057,356.627 189.89,379.794 237.5,385C 295.416,387.964 339.249,364.797 369,315.5C 391,271.5 391,227.5 369,183.5C 339.225,134.355 295.392,111.022 237.5,113.5 Z"/></g>
<g><path style="opacity:0.904" fill="#08cac6" d="M 383.5,41.5 C 385.027,41.427 386.027,42.0937 386.5,43.5C 384.973,43.573 383.973,42.9063 383.5,41.5 Z"/></g>
<g><path style="opacity:0.902" fill="#08d0c9" d="M 110.5,43.5 C 110.167,44.1667 109.833,44.8333 109.5,45.5C 108.791,46.404 107.791,46.7373 106.5,46.5C 107.262,44.7376 108.596,43.7376 110.5,43.5 Z"/></g>
<g><path style="opacity:0.91" fill="#06bdc0" d="M 121.5,40.5 C 119.853,42.3264 117.853,43.6597 115.5,44.5C 116.802,42.1782 118.802,40.8449 121.5,40.5 Z"/></g>
<g><path style="opacity:0.904" fill="#08cac6" d="M 110.5,43.5 C 111.167,43.5 111.833,43.5 112.5,43.5C 112.027,44.9063 111.027,45.573 109.5,45.5C 109.833,44.8333 110.167,44.1667 110.5,43.5 Z"/></g>
<g><path style="opacity:0.904" fill="#08cac6" d="M 386.5,43.5 C 388.027,43.427 389.027,44.0937 389.5,45.5C 387.973,45.573 386.973,44.9063 386.5,43.5 Z"/></g>
<g><path style="opacity:0.91" fill="#06c1c2" d="M 381.5,41.5 C 382.167,41.5 382.833,41.5 383.5,41.5C 383.973,42.9063 384.973,43.573 386.5,43.5C 386.973,44.9063 387.973,45.573 389.5,45.5C 389.833,46.1667 390.167,46.8333 390.5,47.5C 389.167,47.1667 387.833,46.8333 386.5,46.5C 385.29,46.0679 384.29,45.4013 383.5,44.5C 382.833,43.5 382.167,42.5 381.5,41.5 Z"/></g>
<g><path style="opacity:0.906" fill="#07c3c3" d="M 124.5,37.5 C 124.167,38.1667 123.833,38.8333 123.5,39.5C 122.508,39.3284 121.842,39.6618 121.5,40.5C 118.802,40.8449 116.802,42.1782 115.5,44.5C 114.71,45.4013 113.71,46.0679 112.5,46.5C 110.973,46.427 109.973,47.0937 109.5,48.5C 108.167,48.8333 106.833,49.1667 105.5,49.5C 105.833,48.8333 106.167,48.1667 106.5,47.5C 106.5,47.1667 106.5,46.8333 106.5,46.5C 107.791,46.7373 108.791,46.404 109.5,45.5C 111.027,45.573 112.027,44.9063 112.5,43.5C 114.027,43.573 115.027,42.9063 115.5,41.5C 116.29,40.5987 117.29,39.9321 118.5,39.5C 120.5,38.8333 122.5,38.1667 124.5,37.5 Z"/></g>
<g><path style="opacity:0.904" fill="#08cac6" d="M 389.5,45.5 C 391.027,45.427 392.027,46.0937 392.5,47.5C 391.833,47.5 391.167,47.5 390.5,47.5C 390.167,46.8333 389.833,46.1667 389.5,45.5 Z"/></g>
<g><path style="opacity:0.91" fill="#06bdc0" d="M 112.5,46.5 C 112.027,47.9063 111.027,48.573 109.5,48.5C 109.973,47.0937 110.973,46.427 112.5,46.5 Z"/></g>
<g><path style="opacity:0.906" fill="#07c3c3" d="M 390.5,47.5 C 391.167,47.5 391.833,47.5 392.5,47.5C 392.833,48.1667 393.167,48.8333 393.5,49.5C 391.973,49.573 390.973,48.9063 390.5,47.5 Z"/></g>
<g><path style="opacity:0.906" fill="#08cbc7" d="M 392.5,47.5 C 393.609,47.5569 394.609,47.8902 395.5,48.5C 395.5,48.8333 395.5,49.1667 395.5,49.5C 394.833,49.5 394.167,49.5 393.5,49.5C 393.167,48.8333 392.833,48.1667 392.5,47.5 Z"/></g>
<g><path style="opacity:0.879" fill="#08d0c9" d="M 395.5,49.5 C 395.5,49.1667 395.5,48.8333 395.5,48.5C 396.167,48.5 396.833,48.5 397.5,48.5C 398.11,49.391 398.443,50.391 398.5,51.5C 397.833,51.5 397.167,51.5 396.5,51.5C 396.672,50.5084 396.338,49.8417 395.5,49.5 Z"/></g>
<g><path style="opacity:0.325" fill="#09d5cb" d="M 397.5,48.5 C 399.404,48.7376 400.738,49.7376 401.5,51.5C 400.833,51.5 400.167,51.5 399.5,51.5C 399.167,51.5 398.833,51.5 398.5,51.5C 398.443,50.391 398.11,49.391 397.5,48.5 Z"/></g>
<g><path style="opacity:0.906" fill="#07c5c4" d="M 393.5,49.5 C 394.167,49.5 394.833,49.5 395.5,49.5C 396.338,49.8417 396.672,50.5084 396.5,51.5C 394.973,51.573 393.973,50.9063 393.5,49.5 Z"/></g>
<g><path style="opacity:0.91" fill="#06bec0" d="M 386.5,46.5 C 387.833,46.8333 389.167,47.1667 390.5,47.5C 390.973,48.9063 391.973,49.573 393.5,49.5C 393.973,50.9063 394.973,51.573 396.5,51.5C 397.262,53.2624 398.596,54.2624 400.5,54.5C 401.585,56.5869 403.251,57.9202 405.5,58.5C 407.5,60.8333 409.5,63.1667 411.5,65.5C 402.978,59.4068 394.645,53.0735 386.5,46.5 Z"/></g>
<g><path style="opacity:0.875" fill="#08d0c9" d="M 399.5,51.5 C 400.167,51.5 400.833,51.5 401.5,51.5C 402.11,52.391 402.443,53.391 402.5,54.5C 401.833,54.5 401.167,54.5 400.5,54.5C 400.443,53.391 400.11,52.391 399.5,51.5 Z"/></g>
<g><path style="opacity:0.906" fill="#07c6c4" d="M 106.5,47.5 C 106.167,48.1667 105.833,48.8333 105.5,49.5C 102.81,52.1846 99.8103,54.5179 96.5,56.5C 96.5569,55.391 96.8902,54.391 97.5,53.5C 100.518,51.4742 103.518,49.4742 106.5,47.5 Z"/></g>
<g><path style="opacity:0.906" fill="#07c6c4" d="M 396.5,51.5 C 397.167,51.5 397.833,51.5 398.5,51.5C 398.833,51.5 399.167,51.5 399.5,51.5C 400.11,52.391 400.443,53.391 400.5,54.5C 398.596,54.2624 397.262,53.2624 396.5,51.5 Z"/></g>
<g><path style="opacity:0.91" fill="#06bdc0" d="M 109.5,48.5 C 104.455,52.8777 99.1215,56.8777 93.5,60.5C 93.5,59.8333 93.5,59.1667 93.5,58.5C 95.0269,58.573 96.0269,57.9063 96.5,56.5C 99.8103,54.5179 102.81,52.1846 105.5,49.5C 106.833,49.1667 108.167,48.8333 109.5,48.5 Z"/></g>
<g><path style="opacity:0.902" fill="#08cfc9" d="M 97.5,53.5 C 96.8902,54.391 96.5569,55.391 96.5,56.5C 94.9731,56.427 93.9731,57.0937 93.5,58.5C 92.391,58.5569 91.391,58.8902 90.5,59.5C 91.7791,56.3481 94.1125,54.3481 97.5,53.5 Z"/></g>
<g><path style="opacity:0.906" fill="#07c4c3" d="M 96.5,56.5 C 96.0269,57.9063 95.0269,58.573 93.5,58.5C 93.9731,57.0937 94.9731,56.427 96.5,56.5 Z"/></g>
<g><path style="opacity:0.906" fill="#07c6c4" d="M 400.5,54.5 C 401.167,54.5 401.833,54.5 402.5,54.5C 403.833,55.1667 404.833,56.1667 405.5,57.5C 405.5,57.8333 405.5,58.1667 405.5,58.5C 403.251,57.9202 401.585,56.5869 400.5,54.5 Z"/></g>
<g><path style="opacity:0.964" fill="#07cac6" d="M 241.5,57.5 C 321.432,57.859 380.932,92.5257 420,161.5C 450.657,226.275 447.991,289.608 412,351.5C 373.382,408.906 319.215,438.906 249.5,441.5C 173.113,438.251 116.28,403.584 79,337.5C 49.1698,274.963 50.8365,213.296 84,152.5C 120.518,94.6453 173.018,62.9786 241.5,57.5 Z M 237.5,113.5 C 190.102,119.113 154.268,142.447 130,183.5C 108,227.5 108,271.5 130,315.5C 154.057,356.627 189.89,379.794 237.5,385C 295.416,387.964 339.249,364.797 369,315.5C 391,271.5 391,227.5 369,183.5C 339.225,134.355 295.392,111.022 237.5,113.5 Z"/></g>
<g><path style="opacity:0.906" fill="#08cdc8" d="M 405.5,58.5 C 405.5,58.1667 405.5,57.8333 405.5,57.5C 407.179,57.2852 408.179,57.9519 408.5,59.5C 407.609,58.8902 406.609,58.5569 405.5,58.5 Z"/></g>
<g><path style="opacity:0.902" fill="#08cfc9" d="M 90.5,59.5 C 88.6329,60.7598 87.2995,62.4265 86.5,64.5C 85.391,64.5569 84.391,64.8902 83.5,65.5C 84.5778,62.0922 86.9111,60.0922 90.5,59.5 Z"/></g>
<g><path style="opacity:0.906" fill="#07c5c4" d="M 93.5,58.5 C 93.5,59.1667 93.5,59.8333 93.5,60.5C 91.1838,61.8056 88.8505,63.1389 86.5,64.5C 87.2995,62.4265 88.6329,60.7598 90.5,59.5C 91.391,58.8902 92.391,58.5569 93.5,58.5 Z"/></g>
<g><path style="opacity:0.906" fill="#07c5c4" d="M 405.5,58.5 C 406.609,58.5569 407.609,58.8902 408.5,59.5C 409.833,60.8333 411.167,62.1667 412.5,63.5C 412.833,64.1667 413.167,64.8333 413.5,65.5C 412.833,65.5 412.167,65.5 411.5,65.5C 409.5,63.1667 407.5,60.8333 405.5,58.5 Z"/></g>
<g><path style="opacity:0.91" fill="#06bdc0" d="M 93.5,60.5 C 91.7807,63.2195 89.4474,65.2195 86.5,66.5C 86.5,65.8333 86.5,65.1667 86.5,64.5C 88.8505,63.1389 91.1838,61.8056 93.5,60.5 Z"/></g>
<g><path style="opacity:0.906" fill="#08cdc8" d="M 412.5,63.5 C 414.973,63.0882 416.306,64.0882 416.5,66.5C 415.833,66.5 415.167,66.5 414.5,66.5C 414.5,65.8333 414.167,65.5 413.5,65.5C 413.167,64.8333 412.833,64.1667 412.5,63.5 Z"/></g>
<g><path style="opacity:0.906" fill="#07c6c4" d="M 86.5,64.5 C 86.5,65.1667 86.5,65.8333 86.5,66.5C 80.4654,71.024 74.7987,76.1907 69.5,82C 68.9056,82.4643 68.2389,82.631 67.5,82.5C 68.5,81.1667 69.5,79.8333 70.5,78.5C 74.1938,74.1396 78.1938,70.1396 82.5,66.5C 82.5,65.8333 82.8333,65.5 83.5,65.5C 84.391,64.8902 85.391,64.5569 86.5,64.5 Z"/></g>
<g><path style="opacity:0.906" fill="#07c6c4" d="M 414.5,66.5 C 415.167,66.5 415.833,66.5 416.5,66.5C 421.473,70.8062 426.14,75.4729 430.5,80.5C 430.557,81.609 430.89,82.609 431.5,83.5C 430.833,83.5 430.167,83.5 429.5,83.5C 424.865,77.5308 419.865,71.8641 414.5,66.5 Z"/></g>
<g><path style="opacity:0.902" fill="#08d0c9" d="M 82.5,66.5 C 78.1938,70.1396 74.1938,74.1396 70.5,78.5C 70.1667,78.5 69.8333,78.5 69.5,78.5C 72.5537,73.1129 76.887,69.1129 82.5,66.5 Z"/></g>
<g><path style="opacity:0.906" fill="#06bec0" d="M 411.5,65.5 C 412.167,65.5 412.833,65.5 413.5,65.5C 414.167,65.5 414.5,65.8333 414.5,66.5C 419.865,71.8641 424.865,77.5308 429.5,83.5C 423.167,77.8333 417.167,71.8333 411.5,65.5 Z"/></g>
<g><path style="opacity:0.973" fill="#08cec7" d="M 230.5,74.5 C 292.563,70.2285 344.063,91.2285 385,137.5C 427.15,192.885 435.817,253.218 411,318.5C 378.724,386.211 324.891,421.877 249.5,425.5C 174.101,421.867 120.268,386.2 88,318.5C 62.9816,252.625 71.9816,191.959 115,136.5C 145.743,101.543 184.243,80.8762 230.5,74.5 Z M 237.5,113.5 C 190.102,119.113 154.268,142.447 130,183.5C 108,227.5 108,271.5 130,315.5C 154.057,356.627 189.89,379.794 237.5,385C 295.416,387.964 339.249,364.797 369,315.5C 391,271.5 391,227.5 369,183.5C 339.225,134.355 295.392,111.022 237.5,113.5 Z"/></g>
<g><path style="opacity:0.983" fill="#08d1c9" d="M 237.5,75.5 C 315.594,74.5086 372.427,108.509 408,177.5C 434.883,244.319 426.216,305.986 382,362.5C 332.85,415.324 273.017,433.491 202.5,417C 151.197,401.699 114.031,369.866 91,321.5C 64.1173,254.681 72.784,193.014 117,136.5C 149.153,100.34 189.319,80.0069 237.5,75.5 Z M 237.5,113.5 C 190.102,119.113 154.268,142.447 130,183.5C 108,227.5 108,271.5 130,315.5C 154.057,356.627 189.89,379.794 237.5,385C 295.416,387.964 339.249,364.797 369,315.5C 391,271.5 391,227.5 369,183.5C 339.225,134.355 295.392,111.022 237.5,113.5 Z"/></g>
<g><path style="opacity:0.906" fill="#08cbc7" d="M 69.5,78.5 C 69.8333,78.5 70.1667,78.5 70.5,78.5C 69.5,79.8333 68.5,81.1667 67.5,82.5C 66.5,83.8333 65.5,85.1667 64.5,86.5C 64.1667,86.5 63.8333,86.5 63.5,86.5C 63.5,85.8333 63.5,85.1667 63.5,84.5C 65.5,82.5 67.5,80.5 69.5,78.5 Z"/></g>
<g><path style="opacity:0.902" fill="#08d0c9" d="M 63.5,84.5 C 63.5,85.1667 63.5,85.8333 63.5,86.5C 62.1667,87.8333 60.8333,89.1667 59.5,90.5C 59.8449,87.8021 61.1782,85.8021 63.5,84.5 Z"/></g>
<g><path style="opacity:0.906" fill="#07c9c6" d="M 430.5,80.5 C 432.935,81.2702 434.269,82.9368 434.5,85.5C 432.973,85.573 431.973,84.9063 431.5,83.5C 430.89,82.609 430.557,81.609 430.5,80.5 Z"/></g>
<g><path style="opacity:0.906" fill="#06c1c2" d="M 429.5,83.5 C 430.167,83.5 430.833,83.5 431.5,83.5C 431.973,84.9063 432.973,85.573 434.5,85.5C 434.5,86.1667 434.833,86.5 435.5,86.5C 435.5,87.1667 435.5,87.8333 435.5,88.5C 434.833,88.1667 434.167,87.8333 433.5,87.5C 431.833,86.5 430.5,85.1667 429.5,83.5 Z"/></g>
<g><path style="opacity:0.906" fill="#07c6c4" d="M 63.5,86.5 C 63.8333,86.5 64.1667,86.5 64.5,86.5C 59.8504,93.1451 54.8504,99.4784 49.5,105.5C 49.8925,103.716 50.5592,102.05 51.5,100.5C 51.5,100.167 51.5,99.8333 51.5,99.5C 53.5869,98.4154 54.9202,96.7488 55.5,94.5C 57.2644,93.674 58.5977,92.3407 59.5,90.5C 60.8333,89.1667 62.1667,87.8333 63.5,86.5 Z"/></g>
<g><path style="opacity:0.906" fill="#07c6c4" d="M 435.5,86.5 C 436.833,87.8333 438.167,89.1667 439.5,90.5C 439.5,91.1667 439.5,91.8333 439.5,92.5C 437.833,91.5 436.5,90.1667 435.5,88.5C 435.5,87.8333 435.5,87.1667 435.5,86.5 Z"/></g>
<g><path style="opacity:0.299" fill="#09d3cb" d="M 401.5,51.5 C 425.054,68.7163 444.387,89.7163 459.5,114.5C 459.5,115.167 459.5,115.833 459.5,116.5C 458.833,116.167 458.167,115.833 457.5,115.5C 457.573,113.973 456.906,112.973 455.5,112.5C 454.277,109.726 452.777,107.059 451,104.5C 447.968,100.641 444.802,96.9743 441.5,93.5C 441.715,91.8212 441.048,90.8212 439.5,90.5C 438.167,89.1667 436.833,87.8333 435.5,86.5C 434.833,86.5 434.5,86.1667 434.5,85.5C 434.269,82.9368 432.935,81.2702 430.5,80.5C 426.14,75.4729 421.473,70.8062 416.5,66.5C 416.306,64.0882 414.973,63.0882 412.5,63.5C 411.167,62.1667 409.833,60.8333 408.5,59.5C 408.179,57.9519 407.179,57.2852 405.5,57.5C 404.833,56.1667 403.833,55.1667 402.5,54.5C 402.443,53.391 402.11,52.391 401.5,51.5 Z"/></g>
<g><path style="opacity:0.902" fill="#08cfc9" d="M 59.5,90.5 C 58.5977,92.3407 57.2644,93.674 55.5,94.5C 55.8333,92.1667 57.1667,90.8333 59.5,90.5 Z"/></g>
<g><path style="opacity:0.91" fill="#06bdc0" d="M 433.5,87.5 C 434.167,87.8333 434.833,88.1667 435.5,88.5C 436.5,90.1667 437.833,91.5 439.5,92.5C 439.5,93.1667 439.5,93.8333 439.5,94.5C 436.757,92.7607 434.757,90.4274 433.5,87.5 Z"/></g>
<g><path style="opacity:0.906" fill="#08ccc8" d="M 439.5,90.5 C 441.048,90.8212 441.715,91.8212 441.5,93.5C 440.833,93.1667 440.167,92.8333 439.5,92.5C 439.5,91.8333 439.5,91.1667 439.5,90.5 Z"/></g>
<g><path style="opacity:0.902" fill="#08d0c9" d="M 55.5,94.5 C 54.9202,96.7488 53.5869,98.4154 51.5,99.5C 52.0798,97.2512 53.4131,95.5846 55.5,94.5 Z"/></g>
<g><path style="opacity:0.906" fill="#07c7c5" d="M 439.5,92.5 C 440.167,92.8333 440.833,93.1667 441.5,93.5C 444.802,96.9743 447.968,100.641 451,104.5C 452.777,107.059 454.277,109.726 455.5,112.5C 454.833,112.167 454.167,111.833 453.5,111.5C 449.55,105.281 444.883,99.6144 439.5,94.5C 439.5,93.8333 439.5,93.1667 439.5,92.5 Z"/></g>
<g><path style="opacity:0.902" fill="#08cec8" d="M 51.5,100.5 C 50.5592,102.05 49.8925,103.716 49.5,105.5C 48.8333,105.833 48.1667,106.167 47.5,106.5C 47.5809,103.487 48.9142,101.487 51.5,100.5 Z"/></g>
<g><path style="opacity:0.906" fill="#06bec0" d="M 439.5,94.5 C 444.883,99.6144 449.55,105.281 453.5,111.5C 453.5,112.167 453.5,112.833 453.5,113.5C 448.592,107.353 443.925,101.02 439.5,94.5 Z"/></g>
<g><path style="opacity:0.912" fill="#09d5cb" d="M 244.5,103.5 C 312.04,105.164 359.206,136.83 386,198.5C 406.456,264.526 390.623,320.026 338.5,365C 295.528,395.949 248.861,402.949 198.5,386C 138.836,360.224 107.169,314.724 103.5,249.5C 106.715,186.528 136.715,141.695 193.5,115C 210.03,108.448 227.03,104.614 244.5,103.5 Z M 237.5,113.5 C 190.102,119.113 154.268,142.447 130,183.5C 108,227.5 108,271.5 130,315.5C 154.057,356.627 189.89,379.794 237.5,385C 295.416,387.964 339.249,364.797 369,315.5C 391,271.5 391,227.5 369,183.5C 339.225,134.355 295.392,111.022 237.5,113.5 Z"/></g>
<g><path style="opacity:0.906" fill="#07c4c3" d="M 49.5,105.5 C 49.573,107.027 48.9063,108.027 47.5,108.5C 47.5,107.833 47.5,107.167 47.5,106.5C 48.1667,106.167 48.8333,105.833 49.5,105.5 Z"/></g>
<g><path style="opacity:0.91" fill="#06bdc0" d="M 86.5,66.5 C 71.7406,80.752 58.4072,96.0854 46.5,112.5C 46.8333,111.167 47.1667,109.833 47.5,108.5C 48.9063,108.027 49.573,107.027 49.5,105.5C 54.8504,99.4784 59.8504,93.1451 64.5,86.5C 65.5,85.1667 66.5,83.8333 67.5,82.5C 68.2389,82.631 68.9056,82.4643 69.5,82C 74.7987,76.1907 80.4654,71.024 86.5,66.5 Z"/></g>
<g><path style="opacity:0.902" fill="#08ccc7" d="M 47.5,106.5 C 47.5,107.167 47.5,107.833 47.5,108.5C 46.8333,108.833 46.1667,109.167 45.5,109.5C 45.2852,107.821 45.9519,106.821 47.5,106.5 Z"/></g>
<g><path style="opacity:0.902" fill="#08cac6" d="M 45.5,109.5 C 45.573,111.027 44.9063,112.027 43.5,112.5C 43.427,110.973 44.0937,109.973 45.5,109.5 Z"/></g>
<g><path style="opacity:0.906" fill="#06c1c2" d="M 47.5,108.5 C 47.1667,109.833 46.8333,111.167 46.5,112.5C 46.573,114.027 45.9063,115.027 44.5,115.5C 43.8333,115.833 43.1667,116.167 42.5,116.5C 42.8333,115.167 43.1667,113.833 43.5,112.5C 44.9063,112.027 45.573,111.027 45.5,109.5C 46.1667,109.167 46.8333,108.833 47.5,108.5 Z"/></g>
<g><path style="opacity:0.906" fill="#07c3c3" d="M 453.5,111.5 C 454.167,111.833 454.833,112.167 455.5,112.5C 455.427,114.027 456.094,115.027 457.5,115.5C 457.5,116.167 457.5,116.833 457.5,117.5C 456.5,116.833 455.5,116.167 454.5,115.5C 454.167,114.833 453.833,114.167 453.5,113.5C 453.5,112.833 453.5,112.167 453.5,111.5 Z"/></g>
<g><path style="opacity:0.902" fill="#08cac6" d="M 455.5,112.5 C 456.906,112.973 457.573,113.973 457.5,115.5C 456.094,115.027 455.427,114.027 455.5,112.5 Z"/></g>
<g><path style="opacity:0.906" fill="#07c7c5" d="M 43.5,112.5 C 43.1667,113.833 42.8333,115.167 42.5,116.5C 41.8333,117.833 41.1667,119.167 40.5,120.5C 39.8333,120.5 39.1667,120.5 38.5,120.5C 39.6693,117.489 41.336,114.822 43.5,112.5 Z"/></g>
<g><path style="opacity:0.91" fill="#06bdc0" d="M 454.5,115.5 C 455.5,116.167 456.5,116.833 457.5,117.5C 457.427,119.027 458.094,120.027 459.5,120.5C 459.5,121.5 459.5,122.5 459.5,123.5C 457.336,121.178 455.669,118.511 454.5,115.5 Z"/></g>
<g><path style="opacity:0.906" fill="#07c5c4" d="M 457.5,117.5 C 459.048,117.821 459.715,118.821 459.5,120.5C 458.094,120.027 457.427,119.027 457.5,117.5 Z"/></g>
<g><path style="opacity:0.91" fill="#06bdc0" d="M 44.5,115.5 C 43.6597,117.853 42.3264,119.853 40.5,121.5C 40.5,121.167 40.5,120.833 40.5,120.5C 41.1667,119.167 41.8333,117.833 42.5,116.5C 43.1667,116.167 43.8333,115.833 44.5,115.5 Z"/></g>
<g><path style="opacity:0.904" fill="#08cbc7" d="M 457.5,115.5 C 458.167,115.833 458.833,116.167 459.5,116.5C 460.736,118.649 461.736,120.982 462.5,123.5C 461.272,122.694 460.272,121.694 459.5,120.5C 459.715,118.821 459.048,117.821 457.5,117.5C 457.5,116.833 457.5,116.167 457.5,115.5 Z"/></g>
<g><path style="opacity:0.902" fill="#08cac6" d="M 38.5,120.5 C 38.573,122.027 37.9063,123.027 36.5,123.5C 36.427,121.973 37.0937,120.973 38.5,120.5 Z"/></g>
<g><path style="opacity:0.91" fill="#06bdc0" d="M 459.5,123.5 C 460.906,123.973 461.573,124.973 461.5,126.5C 460.094,126.027 459.427,125.027 459.5,123.5 Z"/></g>
<g><path style="opacity:0.902" fill="#08cfc9" d="M 35.5,123.5 C 34.8333,125.833 34.1667,128.167 33.5,130.5C 32.8333,130.5 32.1667,130.5 31.5,130.5C 32.0787,127.669 33.412,125.336 35.5,123.5 Z"/></g>
<g><path style="opacity:0.906" fill="#07c4c3" d="M 38.5,120.5 C 39.1667,120.5 39.8333,120.5 40.5,120.5C 40.5,120.833 40.5,121.167 40.5,121.5C 39.6618,121.842 39.3284,122.508 39.5,123.5C 37.2632,125.647 35.2632,127.98 33.5,130.5C 34.1667,128.167 34.8333,125.833 35.5,123.5C 35.8333,123.5 36.1667,123.5 36.5,123.5C 37.9063,123.027 38.573,122.027 38.5,120.5 Z"/></g>
<g><path style="opacity:0.906" fill="#07c6c4" d="M 459.5,120.5 C 460.272,121.694 461.272,122.694 462.5,123.5C 465.258,126.678 467.258,130.345 468.5,134.5C 468.5,135.167 468.5,135.833 468.5,136.5C 466.659,132.817 464.326,129.484 461.5,126.5C 461.573,124.973 460.906,123.973 459.5,123.5C 459.5,122.5 459.5,121.5 459.5,120.5 Z"/></g>
<g><path style="opacity:0.904" fill="#08cac7" d="M 468.5,134.5 C 471.207,137.247 472.873,140.58 473.5,144.5C 471.833,141.833 470.167,139.167 468.5,136.5C 468.5,135.833 468.5,135.167 468.5,134.5 Z"/></g>
<g><path style="opacity:0.904" fill="#08c9c6" d="M 31.5,130.5 C 32.1667,130.5 32.8333,130.5 33.5,130.5C 32.0116,134.81 30.0116,138.81 27.5,142.5C 27.1667,142.5 26.8333,142.5 26.5,142.5C 26.5,141.5 26.5,140.5 26.5,139.5C 28.9236,136.992 30.5903,133.992 31.5,130.5 Z"/></g>
<g><path style="opacity:0.903" fill="#08d0c9" d="M 26.5,139.5 C 26.5,140.5 26.5,141.5 26.5,142.5C 25.2028,144.371 24.2028,146.371 23.5,148.5C 23.1324,144.956 24.1324,141.956 26.5,139.5 Z"/></g>
<g><path style="opacity:0.91" fill="#06bfc1" d="M 461.5,126.5 C 464.326,129.484 466.659,132.817 468.5,136.5C 470.167,139.167 471.833,141.833 473.5,144.5C 473.157,146.483 473.824,147.817 475.5,148.5C 475.395,152.258 476.395,155.592 478.5,158.5C 478.993,160.806 479.326,163.139 479.5,165.5C 474.283,152.204 468.283,139.204 461.5,126.5 Z"/></g>
<g><path style="opacity:0.906" fill="#07c7c5" d="M 473.5,144.5 C 474.674,145.514 475.34,146.847 475.5,148.5C 473.824,147.817 473.157,146.483 473.5,144.5 Z"/></g>
<g><path style="opacity:0.91" fill="#06bec0" d="M 39.5,123.5 C 24.8142,149.229 14.4808,176.562 8.5,205.5C 8.5,203.167 8.5,200.833 8.5,198.5C 9.65719,195.727 10.3239,192.727 10.5,189.5C 10.2322,187.901 10.5655,186.568 11.5,185.5C 12.9238,183.485 13.5905,181.152 13.5,178.5C 13.2627,177.209 13.596,176.209 14.5,175.5C 18.6166,164.496 22.9499,153.496 27.5,142.5C 30.0116,138.81 32.0116,134.81 33.5,130.5C 35.2632,127.98 37.2632,125.647 39.5,123.5 Z"/></g>
<g><path style="opacity:0.904" fill="#08d1ca" d="M 476.5,148.5 C 478.293,150.426 479.293,152.759 479.5,155.5C 477.707,153.574 476.707,151.241 476.5,148.5 Z"/></g>
<g><path style="opacity:0.906" fill="#07c7c5" d="M 475.5,148.5 C 475.833,148.5 476.167,148.5 476.5,148.5C 476.707,151.241 477.707,153.574 479.5,155.5C 480.038,157.117 480.371,158.784 480.5,160.5C 479.833,159.833 479.167,159.167 478.5,158.5C 476.395,155.592 475.395,152.258 475.5,148.5 Z"/></g>
<g><path style="opacity:0.906" fill="#07c6c4" d="M 26.5,142.5 C 26.8333,142.5 27.1667,142.5 27.5,142.5C 22.9499,153.496 18.6166,164.496 14.5,175.5C 14.5,174.167 14.5,172.833 14.5,171.5C 14.8333,169.5 15.1667,167.5 15.5,165.5C 17.7851,162.665 19.1184,159.332 19.5,155.5C 21.1002,153.297 22.4335,150.964 23.5,148.5C 24.2028,146.371 25.2028,144.371 26.5,142.5 Z"/></g>
<g><path style="opacity:0.902" fill="#08d0c9" d="M 19.5,155.5 C 19.1184,159.332 17.7851,162.665 15.5,165.5C 16.2667,161.851 17.6001,158.518 19.5,155.5 Z"/></g>
<g><path style="opacity:0.906" fill="#07c2c2" d="M 478.5,158.5 C 479.167,159.167 479.833,159.833 480.5,160.5C 480.833,162.5 481.167,164.5 481.5,166.5C 480.833,166.167 480.167,165.833 479.5,165.5C 479.326,163.139 478.993,160.806 478.5,158.5 Z"/></g>
<g><path style="opacity:0.904" fill="#07c7c5" d="M 481.5,166.5 C 483.535,168.938 485.201,171.605 486.5,174.5C 486.5,175.833 486.5,177.167 486.5,178.5C 483.684,175.072 482.018,171.072 481.5,166.5 Z"/></g>
<g><path style="opacity:0.91" fill="#08d0c9" d="M 480.5,160.5 C 483.819,164.414 485.819,169.08 486.5,174.5C 485.201,171.605 483.535,168.938 481.5,166.5C 481.167,164.5 480.833,162.5 480.5,160.5 Z"/></g>
<g><path style="opacity:0.904" fill="#08cac7" d="M 14.5,171.5 C 14.5,172.833 14.5,174.167 14.5,175.5C 13.596,176.209 13.2627,177.209 13.5,178.5C 13.1667,178.5 12.8333,178.5 12.5,178.5C 12.4095,175.848 13.0762,173.515 14.5,171.5 Z"/></g>
<g><path style="opacity:0.903" fill="#08cdc8" d="M 12.5,178.5 C 12.0074,180.806 11.6741,183.139 11.5,185.5C 10.5655,186.568 10.2322,187.901 10.5,189.5C 10.1667,189.5 9.83333,189.5 9.5,189.5C 9.33591,186.813 9.50258,184.146 10,181.5C 10.2355,179.881 11.0689,178.881 12.5,178.5 Z"/></g>
<g><path style="opacity:0.906" fill="#07c4c3" d="M 12.5,178.5 C 12.8333,178.5 13.1667,178.5 13.5,178.5C 13.5905,181.152 12.9238,183.485 11.5,185.5C 11.6741,183.139 12.0074,180.806 12.5,178.5 Z"/></g>
<g><path style="opacity:0.91" fill="#08cec8" d="M 486.5,178.5 C 487.497,178.47 488.164,178.97 488.5,180C 490.845,185.605 491.845,191.438 491.5,197.5C 491.167,197.5 490.833,197.5 490.5,197.5C 490.663,195.143 490.497,192.81 490,190.5C 489.617,189.944 489.117,189.611 488.5,189.5C 487.992,185.803 487.326,182.136 486.5,178.5 Z"/></g>
<g><path style="opacity:0.908" fill="#06bfc1" d="M 479.5,165.5 C 480.167,165.833 480.833,166.167 481.5,166.5C 482.018,171.072 483.684,175.072 486.5,178.5C 487.326,182.136 487.992,185.803 488.5,189.5C 488.565,192.428 489.232,195.095 490.5,197.5C 490.5,200.167 490.5,202.833 490.5,205.5C 487.481,192.099 483.814,178.766 479.5,165.5 Z"/></g>
<g><path style="opacity:0.903" fill="#07c7c5" d="M 9.5,189.5 C 9.83333,189.5 10.1667,189.5 10.5,189.5C 10.3239,192.727 9.65719,195.727 8.5,198.5C 8.5,196.833 8.5,195.167 8.5,193.5C 8.23219,191.901 8.56552,190.568 9.5,189.5 Z"/></g>
<g><path style="opacity:0.906" fill="#07c5c4" d="M 488.5,189.5 C 489.117,189.611 489.617,189.944 490,190.5C 490.497,192.81 490.663,195.143 490.5,197.5C 489.232,195.095 488.565,192.428 488.5,189.5 Z"/></g>
<g><path style="opacity:0.904" fill="#08cac6" d="M 8.5,193.5 C 8.5,195.167 8.5,196.833 8.5,198.5C 7.83333,199.833 7.16667,201.167 6.5,202.5C 6.5,200.833 6.5,199.167 6.5,197.5C 7.16667,196.167 7.83333,194.833 8.5,193.5 Z"/></g>
<g><path style="opacity:0.906" fill="#08d1c9" d="M 6.5,197.5 C 6.5,199.167 6.5,200.833 6.5,202.5C 6.5,203.167 6.5,203.833 6.5,204.5C 5.83333,205.833 5.16667,207.167 4.5,208.5C 4.42993,204.575 5.09659,200.909 6.5,197.5 Z"/></g>
<g><path style="opacity:0.911" fill="#08cfc9" d="M 491.5,197.5 C 492.649,197.791 493.316,198.624 493.5,200C 494.159,202.462 494.493,204.962 494.5,207.5C 493.833,206.5 493.167,205.5 492.5,204.5C 491.781,202.236 491.448,199.903 491.5,197.5 Z"/></g>
<g><path style="opacity:0.908" fill="#07c2c2" d="M 8.5,198.5 C 8.5,200.833 8.5,203.167 8.5,205.5C 8.5,205.833 8.5,206.167 8.5,206.5C 7.83333,207.167 7.16667,207.833 6.5,208.5C 6.5,207.167 6.5,205.833 6.5,204.5C 6.5,203.833 6.5,203.167 6.5,202.5C 7.16667,201.167 7.83333,199.833 8.5,198.5 Z"/></g>
<g><path style="opacity:0.908" fill="#07c2c2" d="M 490.5,197.5 C 490.833,197.5 491.167,197.5 491.5,197.5C 491.448,199.903 491.781,202.236 492.5,204.5C 492.5,205.833 492.5,207.167 492.5,208.5C 491.833,207.833 491.167,207.167 490.5,206.5C 490.5,206.167 490.5,205.833 490.5,205.5C 490.5,202.833 490.5,200.167 490.5,197.5 Z"/></g>
<g><path style="opacity:0.906" fill="#07c7c5" d="M 6.5,204.5 C 6.5,205.833 6.5,207.167 6.5,208.5C 5.66871,215.817 5.00204,223.151 4.5,230.5C 3.18921,248.516 3.52254,266.516 5.5,284.5C 5.5,286.5 5.5,288.5 5.5,290.5C 5.16667,290.5 4.83333,290.5 4.5,290.5C 0.5,263.167 0.5,235.833 4.5,208.5C 5.16667,207.167 5.83333,205.833 6.5,204.5 Z"/></g>
<g><path style="opacity:0.908" fill="#06bec0" d="M 8.5,206.5 C 7.49949,214.505 6.49949,222.505 5.5,230.5C 5.16667,230.5 4.83333,230.5 4.5,230.5C 5.00204,223.151 5.66871,215.817 6.5,208.5C 7.16667,207.833 7.83333,207.167 8.5,206.5 Z"/></g>
<g><path style="opacity:0.908" fill="#06bec0" d="M 490.5,206.5 C 491.167,207.167 491.833,207.833 492.5,208.5C 493.355,217.326 494.355,225.993 495.5,234.5C 495.566,248.512 495.233,262.512 494.5,276.5C 493.356,280.964 492.69,285.63 492.5,290.5C 491.833,291.167 491.167,291.833 490.5,292.5C 492.529,278.211 493.862,263.877 494.5,249.5C 493.862,235.123 492.529,220.789 490.5,206.5 Z"/></g>
<g><path style="opacity:0.904" fill="#07c7c5" d="M 492.5,204.5 C 493.167,205.5 493.833,206.5 494.5,207.5C 494.916,212.493 495.249,217.493 495.5,222.5C 495.5,226.5 495.5,230.5 495.5,234.5C 494.355,225.993 493.355,217.326 492.5,208.5C 492.5,207.167 492.5,205.833 492.5,204.5 Z"/></g>
<g><path style="opacity:0.902" fill="#07c9c6" d="M 495.5,222.5 C 498.332,243.212 497.999,263.878 494.5,284.5C 494.5,281.833 494.5,279.167 494.5,276.5C 495.233,262.512 495.566,248.512 495.5,234.5C 495.5,230.5 495.5,226.5 495.5,222.5 Z"/></g>
<g><path style="opacity:0.904" fill="#07c6c4" d="M 494.5,276.5 C 494.5,279.167 494.5,281.833 494.5,284.5C 494.5,285.833 494.5,287.167 494.5,288.5C 493.833,289.167 493.167,289.833 492.5,290.5C 492.69,285.63 493.356,280.964 494.5,276.5 Z"/></g>
<g><path style="opacity:0.906" fill="#08cfc9" d="M 4.5,290.5 C 4.83333,290.5 5.16667,290.5 5.5,290.5C 5.25939,292.898 5.92606,294.898 7.5,296.5C 7.70381,299.518 8.03714,302.518 8.5,305.5C 8.16667,305.5 7.83333,305.5 7.5,305.5C 5.6253,300.794 4.6253,295.794 4.5,290.5 Z"/></g>
<g><path style="opacity:0.904" fill="#07c6c4" d="M 5.5,284.5 C 6.79468,288.267 7.46134,292.267 7.5,296.5C 5.92606,294.898 5.25939,292.898 5.5,290.5C 5.5,288.5 5.5,286.5 5.5,284.5 Z"/></g>
<g><path style="opacity:0.904" fill="#08cac7" d="M 494.5,288.5 C 494.198,291.373 493.531,294.039 492.5,296.5C 492.5,294.5 492.5,292.5 492.5,290.5C 493.167,289.833 493.833,289.167 494.5,288.5 Z"/></g>
<g><path style="opacity:0.906" fill="#07c4c3" d="M 492.5,290.5 C 492.5,292.5 492.5,294.5 492.5,296.5C 492.784,298.415 492.451,300.081 491.5,301.5C 491.167,301.5 490.833,301.5 490.5,301.5C 490.5,298.833 490.5,296.167 490.5,293.5C 490.5,293.167 490.5,292.833 490.5,292.5C 491.167,291.833 491.833,291.167 492.5,290.5 Z"/></g>
<g><path style="opacity:0.906" fill="#07c5c4" d="M 7.5,296.5 C 9.11843,300.575 10.1184,304.908 10.5,309.5C 10.1667,309.5 9.83333,309.5 9.5,309.5C 8.56552,308.432 8.23219,307.099 8.5,305.5C 8.03714,302.518 7.70381,299.518 7.5,296.5 Z"/></g>
<g><path style="opacity:0.91" fill="#06bec0" d="M 4.5,230.5 C 4.83333,230.5 5.16667,230.5 5.5,230.5C 3.56751,261.441 6.90084,291.774 15.5,321.5C 15.1667,321.5 14.8333,321.5 14.5,321.5C 13.1523,317.416 11.819,313.416 10.5,309.5C 10.1184,304.908 9.11843,300.575 7.5,296.5C 7.46134,292.267 6.79468,288.267 5.5,284.5C 3.52254,266.516 3.18921,248.516 4.5,230.5 Z"/></g>
<g><path style="opacity:0.903" fill="#07c8c5" d="M 490.5,301.5 C 490.833,301.5 491.167,301.5 491.5,301.5C 491.768,303.099 491.434,304.432 490.5,305.5C 490.167,305.5 489.833,305.5 489.5,305.5C 489.232,303.901 489.566,302.568 490.5,301.5 Z"/></g>
<g><path style="opacity:0.91" fill="#06bec1" d="M 490.5,293.5 C 490.5,296.167 490.5,298.833 490.5,301.5C 489.566,302.568 489.232,303.901 489.5,305.5C 489.768,307.099 489.434,308.432 488.5,309.5C 486.877,313.978 485.544,318.645 484.5,323.5C 483.833,323.833 483.167,324.167 482.5,324.5C 485.349,314.101 488.015,303.768 490.5,293.5 Z"/></g>
<g><path style="opacity:0.904" fill="#09d1ca" d="M 7.5,305.5 C 7.83333,305.5 8.16667,305.5 8.5,305.5C 8.23219,307.099 8.56552,308.432 9.5,309.5C 9.5,310.833 9.5,312.167 9.5,313.5C 7.96046,311.162 7.29379,308.495 7.5,305.5 Z"/></g>
<g><path style="opacity:0.905" fill="#08cac6" d="M 489.5,305.5 C 489.833,305.5 490.167,305.5 490.5,305.5C 490.425,308.206 490.092,310.873 489.5,313.5C 489.167,313.5 488.833,313.5 488.5,313.5C 488.5,312.167 488.5,310.833 488.5,309.5C 489.434,308.432 489.768,307.099 489.5,305.5 Z"/></g>
<g><path style="opacity:0.906" fill="#07c6c4" d="M 9.5,309.5 C 9.83333,309.5 10.1667,309.5 10.5,309.5C 11.819,313.416 13.1523,317.416 14.5,321.5C 14.5,322.167 14.5,322.833 14.5,323.5C 13.8333,323.167 13.1667,322.833 12.5,322.5C 12.6716,321.508 12.3382,320.842 11.5,320.5C 11.5905,317.848 10.9238,315.515 9.5,313.5C 9.5,312.167 9.5,310.833 9.5,309.5 Z"/></g>
<g><path style="opacity:0.903" fill="#08d0c9" d="M 9.5,313.5 C 10.9238,315.515 11.5905,317.848 11.5,320.5C 10.0762,318.485 9.40953,316.152 9.5,313.5 Z"/></g>
<g><path style="opacity:0.909" fill="#08d1ca" d="M 488.5,313.5 C 488.833,313.5 489.167,313.5 489.5,313.5C 489.258,317.479 488.258,321.146 486.5,324.5C 487.008,320.803 487.674,317.136 488.5,313.5 Z"/></g>
<g><path style="opacity:0.904" fill="#07c7c5" d="M 488.5,309.5 C 488.5,310.833 488.5,312.167 488.5,313.5C 487.674,317.136 487.008,320.803 486.5,324.5C 485.833,325.167 485.167,325.833 484.5,326.5C 484.5,325.5 484.5,324.5 484.5,323.5C 485.544,318.645 486.877,313.978 488.5,309.5 Z"/></g>
<g><path style="opacity:0.906" fill="#06c0c2" d="M 14.5,321.5 C 14.8333,321.5 15.1667,321.5 15.5,321.5C 16.8699,324.619 17.8699,327.952 18.5,331.5C 18.4326,332.959 18.7659,334.292 19.5,335.5C 18.8333,335.5 18.1667,335.5 17.5,335.5C 17.5,335.167 17.5,334.833 17.5,334.5C 16.2967,330.89 15.2967,327.223 14.5,323.5C 14.5,322.833 14.5,322.167 14.5,321.5 Z"/></g>
<g><path style="opacity:0.906" fill="#07c2c2" d="M 484.5,323.5 C 484.5,324.5 484.5,325.5 484.5,326.5C 483.596,327.209 483.263,328.209 483.5,329.5C 483.167,329.5 482.833,329.5 482.5,329.5C 482.5,328.167 482.5,326.833 482.5,325.5C 482.5,325.167 482.5,324.833 482.5,324.5C 483.167,324.167 483.833,323.833 484.5,323.5 Z"/></g>
<g><path style="opacity:0.903" fill="#08cac6" d="M 12.5,322.5 C 13.1667,322.833 13.8333,323.167 14.5,323.5C 15.2967,327.223 16.2967,330.89 17.5,334.5C 15.081,330.936 13.4144,326.936 12.5,322.5 Z"/></g>
<g><path style="opacity:0.91" fill="#08cfc9" d="M 486.5,324.5 C 485.269,330.532 483.269,336.199 480.5,341.5C 480.5,340.5 480.5,339.5 480.5,338.5C 481.683,335.619 482.683,332.619 483.5,329.5C 483.263,328.209 483.596,327.209 484.5,326.5C 485.167,325.833 485.833,325.167 486.5,324.5 Z"/></g>
<g><path style="opacity:0.904" fill="#07c6c4" d="M 482.5,329.5 C 482.833,329.5 483.167,329.5 483.5,329.5C 482.683,332.619 481.683,335.619 480.5,338.5C 480.167,338.5 479.833,338.5 479.5,338.5C 479.69,335.145 480.69,332.145 482.5,329.5 Z"/></g>
<g><path style="opacity:0.906" fill="#06bfc1" d="M 482.5,325.5 C 482.5,326.833 482.5,328.167 482.5,329.5C 480.69,332.145 479.69,335.145 479.5,338.5C 478.549,339.919 478.216,341.585 478.5,343.5C 477.662,343.842 477.328,344.508 477.5,345.5C 476.167,345.5 475.5,346.167 475.5,347.5C 474.833,347.833 474.167,348.167 473.5,348.5C 476.325,340.679 479.325,333.012 482.5,325.5 Z"/></g>
<g><path style="opacity:0.906" fill="#07c6c4" d="M 17.5,335.5 C 18.1667,335.5 18.8333,335.5 19.5,335.5C 22.0336,341.768 24.3669,348.102 26.5,354.5C 25.5,353.167 24.5,351.833 23.5,350.5C 23.1667,350.5 22.8333,350.5 22.5,350.5C 22.5358,347.539 21.5358,345.206 19.5,343.5C 18.8333,340.833 18.1667,338.167 17.5,335.5 Z"/></g>
<g><path style="opacity:0.904" fill="#07c9c6" d="M 479.5,338.5 C 479.833,338.5 480.167,338.5 480.5,338.5C 480.5,339.5 480.5,340.5 480.5,341.5C 479.662,341.842 479.328,342.508 479.5,343.5C 479.167,343.5 478.833,343.5 478.5,343.5C 478.216,341.585 478.549,339.919 479.5,338.5 Z"/></g>
<g><path style="opacity:0.903" fill="#08d0c9" d="M 19.5,343.5 C 21.5358,345.206 22.5358,347.539 22.5,350.5C 20.7073,348.574 19.7073,346.241 19.5,343.5 Z"/></g>
<g><path style="opacity:0.904" fill="#07c7c5" d="M 477.5,345.5 C 477.34,347.153 476.674,348.486 475.5,349.5C 475.5,348.833 475.5,348.167 475.5,347.5C 475.5,346.167 476.167,345.5 477.5,345.5 Z"/></g>
<g><path style="opacity:0.906" fill="#08cfc9" d="M 478.5,343.5 C 478.833,343.5 479.167,343.5 479.5,343.5C 478.018,348.456 476.018,353.123 473.5,357.5C 473.5,356.5 473.5,355.5 473.5,354.5C 473.893,352.716 474.559,351.05 475.5,349.5C 476.674,348.486 477.34,347.153 477.5,345.5C 477.328,344.508 477.662,343.842 478.5,343.5 Z"/></g>
<g><path style="opacity:0.902" fill="#08cfc8" d="M 23.5,350.5 C 24.5,351.833 25.5,353.167 26.5,354.5C 26.5,355.167 26.5,355.833 26.5,356.5C 26.5,357.5 26.5,358.5 26.5,359.5C 24.1324,357.044 23.1324,354.044 23.5,350.5 Z"/></g>
<g><path style="opacity:0.906" fill="#07c1c2" d="M 475.5,347.5 C 475.5,348.167 475.5,348.833 475.5,349.5C 474.559,351.05 473.893,352.716 473.5,354.5C 471.659,356.849 470.326,359.515 469.5,362.5C 467.748,365.672 465.748,368.672 463.5,371.5C 464.038,369.883 464.371,368.216 464.5,366.5C 467.533,360.435 470.533,354.435 473.5,348.5C 474.167,348.167 474.833,347.833 475.5,347.5 Z"/></g>
<g><path style="opacity:0.91" fill="#06bec0" d="M 18.5,331.5 C 24.405,346.645 31.405,361.312 39.5,375.5C 38.5,374.833 37.5,374.167 36.5,373.5C 33.9196,367.332 30.5863,361.665 26.5,356.5C 26.5,355.833 26.5,355.167 26.5,354.5C 24.3669,348.102 22.0336,341.768 19.5,335.5C 18.7659,334.292 18.4326,332.959 18.5,331.5 Z"/></g>
<g><path style="opacity:0.904" fill="#08cac7" d="M 473.5,354.5 C 473.5,355.5 473.5,356.5 473.5,357.5C 472.326,358.514 471.66,359.847 471.5,361.5C 470.833,361.833 470.167,362.167 469.5,362.5C 470.326,359.515 471.659,356.849 473.5,354.5 Z"/></g>
<g><path style="opacity:0.904" fill="#07c8c5" d="M 26.5,356.5 C 30.5863,361.665 33.9196,367.332 36.5,373.5C 36.5,374.167 36.5,374.833 36.5,375.5C 36.1667,375.5 35.8333,375.5 35.5,375.5C 35.0652,372.843 34.0652,370.509 32.5,368.5C 30.5944,365.565 28.5944,362.565 26.5,359.5C 26.5,358.5 26.5,357.5 26.5,356.5 Z"/></g>
<g><path style="opacity:0.907" fill="#08cec8" d="M 471.5,361.5 C 469.136,367.589 465.802,372.922 461.5,377.5C 461.5,376.833 461.5,376.167 461.5,375.5C 462.674,374.486 463.34,373.153 463.5,371.5C 465.748,368.672 467.748,365.672 469.5,362.5C 470.167,362.167 470.833,361.833 471.5,361.5 Z"/></g>
<g><path style="opacity:0.91" fill="#06bdc0" d="M 464.5,366.5 C 464.371,368.216 464.038,369.883 463.5,371.5C 462.833,371.833 462.167,372.167 461.5,372.5C 461.992,370.181 462.992,368.181 464.5,366.5 Z"/></g>
<g><path style="opacity:0.902" fill="#08d0c9" d="M 32.5,368.5 C 34.0652,370.509 35.0652,372.843 35.5,375.5C 33.1663,373.824 32.1663,371.491 32.5,368.5 Z"/></g>
<g><path style="opacity:0.91" fill="#06bec0" d="M 461.5,372.5 C 461.5,373.5 461.5,374.5 461.5,375.5C 460.094,375.973 459.427,376.973 459.5,378.5C 458.599,379.29 457.932,380.29 457.5,381.5C 456.833,381.833 456.167,382.167 455.5,382.5C 457,378.827 459,375.494 461.5,372.5 Z"/></g>
<g><path style="opacity:0.906" fill="#07c3c3" d="M 463.5,371.5 C 463.34,373.153 462.674,374.486 461.5,375.5C 461.5,374.5 461.5,373.5 461.5,372.5C 462.167,372.167 462.833,371.833 463.5,371.5 Z"/></g>
<g><path style="opacity:0.906" fill="#07c3c3" d="M 36.5,373.5 C 37.5,374.167 38.5,374.833 39.5,375.5C 39.3284,376.492 39.6618,377.158 40.5,377.5C 40.8333,378.833 41.1667,380.167 41.5,381.5C 40.8333,381.167 40.1667,380.833 39.5,380.5C 39.2503,378.326 38.2503,376.659 36.5,375.5C 36.5,374.833 36.5,374.167 36.5,373.5 Z"/></g>
<g><path style="opacity:0.906" fill="#07c4c4" d="M 461.5,375.5 C 461.5,376.167 461.5,376.833 461.5,377.5C 460.833,377.833 460.167,378.167 459.5,378.5C 459.427,376.973 460.094,375.973 461.5,375.5 Z"/></g>
<g><path style="opacity:0.904" fill="#08cac6" d="M 36.5,375.5 C 38.2503,376.659 39.2503,378.326 39.5,380.5C 37.7497,379.341 36.7497,377.674 36.5,375.5 Z"/></g>
<g><path style="opacity:0.902" fill="#07c8c6" d="M 461.5,377.5 C 460.551,379.777 459.218,381.777 457.5,383.5C 457.5,382.833 457.5,382.167 457.5,381.5C 457.932,380.29 458.599,379.29 459.5,378.5C 460.167,378.167 460.833,377.833 461.5,377.5 Z"/></g>
<g><path style="opacity:0.904" fill="#08cac6" d="M 39.5,380.5 C 40.1667,380.833 40.8333,381.167 41.5,381.5C 41.5,382.167 41.5,382.833 41.5,383.5C 40.0937,383.027 39.427,382.027 39.5,380.5 Z"/></g>
<g><path style="opacity:0.904" fill="#08cac6" d="M 41.5,383.5 C 42.9063,383.973 43.573,384.973 43.5,386.5C 42.0937,386.027 41.427,385.027 41.5,383.5 Z"/></g>
<g><path style="opacity:0.902" fill="#08cbc6" d="M 457.5,383.5 C 457.573,385.027 456.906,386.027 455.5,386.5C 455.427,384.973 456.094,383.973 457.5,383.5 Z"/></g>
<g><path style="opacity:0.906" fill="#07c1c2" d="M 457.5,381.5 C 457.5,382.167 457.5,382.833 457.5,383.5C 456.094,383.973 455.427,384.973 455.5,386.5C 454.094,386.973 453.427,387.973 453.5,389.5C 452.194,392.339 450.194,394.672 447.5,396.5C 448.957,394.372 449.957,392.038 450.5,389.5C 451.811,386.865 453.478,384.531 455.5,382.5C 456.167,382.167 456.833,381.833 457.5,381.5 Z"/></g>
<g><path style="opacity:0.904" fill="#08cac6" d="M 43.5,386.5 C 44.1667,386.833 44.8333,387.167 45.5,387.5C 45.5,388.167 45.5,388.833 45.5,389.5C 44.0937,389.027 43.427,388.027 43.5,386.5 Z"/></g>
<g><path style="opacity:0.902" fill="#08cac6" d="M 455.5,386.5 C 455.573,388.027 454.906,389.027 453.5,389.5C 453.427,387.973 454.094,386.973 455.5,386.5 Z"/></g>
<g><path style="opacity:0.906" fill="#07c5c4" d="M 45.5,387.5 C 47.3264,389.147 48.6597,391.147 49.5,393.5C 48.8333,393.167 48.1667,392.833 47.5,392.5C 46.8333,391.5 46.1667,390.5 45.5,389.5C 45.5,388.833 45.5,388.167 45.5,387.5 Z"/></g>
<g><path style="opacity:0.902" fill="#08cbc7" d="M 47.5,392.5 C 48.1667,392.833 48.8333,393.167 49.5,393.5C 49.5,394.167 49.5,394.833 49.5,395.5C 48.0937,395.027 47.427,394.027 47.5,392.5 Z"/></g>
<g><path style="opacity:0.907" fill="#08cec8" d="M 453.5,389.5 C 453.007,393.634 451.007,396.634 447.5,398.5C 447.5,397.833 447.5,397.167 447.5,396.5C 450.194,394.672 452.194,392.339 453.5,389.5 Z"/></g>
<g><path style="opacity:0.91" fill="#06bec0" d="M 40.5,377.5 C 47.1639,386.825 53.8306,396.158 60.5,405.5C 59.8333,405.5 59.1667,405.5 58.5,405.5C 57.9202,403.251 56.5869,401.585 54.5,400.5C 53.2141,397.883 51.5475,395.55 49.5,393.5C 48.6597,391.147 47.3264,389.147 45.5,387.5C 44.8333,387.167 44.1667,386.833 43.5,386.5C 43.573,384.973 42.9063,383.973 41.5,383.5C 41.5,382.833 41.5,382.167 41.5,381.5C 41.1667,380.167 40.8333,378.833 40.5,377.5 Z"/></g>
<g><path style="opacity:0.906" fill="#07c7c5" d="M 49.5,393.5 C 51.5475,395.55 53.2141,397.883 54.5,400.5C 53.391,400.443 52.391,400.11 51.5,399.5C 50.8333,398.167 50.1667,396.833 49.5,395.5C 49.5,394.833 49.5,394.167 49.5,393.5 Z"/></g>
<g><path style="opacity:0.907" fill="#08d0c9" d="M 447.5,399.5 C 447.262,401.404 446.262,402.738 444.5,403.5C 444.554,401.368 445.554,400.035 447.5,399.5 Z"/></g>
<g><path style="opacity:0.902" fill="#08cfc9" d="M 51.5,399.5 C 52.391,400.11 53.391,400.443 54.5,400.5C 54.8333,401.833 55.1667,403.167 55.5,404.5C 53.4131,403.415 52.0798,401.749 51.5,399.5 Z"/></g>
<g><path style="opacity:0.906" fill="#07c6c4" d="M 54.5,400.5 C 56.5869,401.585 57.9202,403.251 58.5,405.5C 57.391,405.443 56.391,405.11 55.5,404.5C 55.1667,403.167 54.8333,401.833 54.5,400.5 Z"/></g>
<g><path style="opacity:0.902" fill="#08cfc9" d="M 55.5,404.5 C 56.391,405.11 57.391,405.443 58.5,405.5C 58.5569,406.609 58.8902,407.609 59.5,408.5C 57.1667,408.167 55.8333,406.833 55.5,404.5 Z"/></g>
<g><path style="opacity:0.906" fill="#07c5c4" d="M 58.5,405.5 C 59.1667,405.5 59.8333,405.5 60.5,405.5C 61.8056,407.816 63.1389,410.15 64.5,412.5C 64.1667,412.5 63.8333,412.5 63.5,412.5C 62.1667,411.167 60.8333,409.833 59.5,408.5C 58.8902,407.609 58.5569,406.609 58.5,405.5 Z"/></g>
<g><path style="opacity:0.907" fill="#08d0c9" d="M 443.5,404.5 C 440.954,409.719 437.287,414.052 432.5,417.5C 435.798,412.868 439.464,408.534 443.5,404.5 Z"/></g>
<g><path style="opacity:0.902" fill="#08d0c9" d="M 59.5,408.5 C 60.8333,409.833 62.1667,411.167 63.5,412.5C 63.5,413.167 63.5,413.833 63.5,414.5C 61.1782,413.198 59.8449,411.198 59.5,408.5 Z"/></g>
<g><path style="opacity:0.91" fill="#06bec1" d="M 60.5,405.5 C 63.9587,408.415 66.9587,411.748 69.5,415.5C 68.391,415.443 67.391,415.11 66.5,414.5C 65.8333,413.833 65.1667,413.167 64.5,412.5C 63.1389,410.15 61.8056,407.816 60.5,405.5 Z"/></g>
<g><path style="opacity:0.902" fill="#08ccc7" d="M 63.5,412.5 C 63.8333,412.5 64.1667,412.5 64.5,412.5C 65.1667,413.167 65.8333,413.833 66.5,414.5C 67.8075,416.482 69.1408,418.482 70.5,420.5C 70.1667,420.5 69.8333,420.5 69.5,420.5C 67.1394,418.806 65.1394,416.806 63.5,414.5C 63.5,413.833 63.5,413.167 63.5,412.5 Z"/></g>
<g><path style="opacity:0.906" fill="#07c5c4" d="M 66.5,414.5 C 67.391,415.11 68.391,415.443 69.5,415.5C 73.8333,420.833 78.1667,426.167 82.5,431.5C 81.1667,430.5 79.8333,429.5 78.5,428.5C 75.5,426.167 72.8333,423.5 70.5,420.5C 69.1408,418.482 67.8075,416.482 66.5,414.5 Z"/></g>
<g><path style="opacity:0.906" fill="#06bdc0" d="M 69.5,415.5 C 75.5,420.833 81.1667,426.5 86.5,432.5C 85.1667,432.167 83.8333,431.833 82.5,431.5C 78.1667,426.167 73.8333,420.833 69.5,415.5 Z"/></g>
<g><path style="opacity:0.906" fill="#07c6c4" d="M 447.5,396.5 C 447.5,397.167 447.5,397.833 447.5,398.5C 447.5,398.833 447.5,399.167 447.5,399.5C 445.554,400.035 444.554,401.368 444.5,403.5C 443.833,403.5 443.5,403.833 443.5,404.5C 439.464,408.534 435.798,412.868 432.5,417.5C 431.833,417.5 431.5,417.833 431.5,418.5C 426.473,422.86 421.806,427.527 417.5,432.5C 412.236,435.099 407.903,438.766 404.5,443.5C 403.833,443.833 403.167,444.167 402.5,444.5C 400.5,445.5 398.5,446.5 396.5,447.5C 415.167,432.167 432.167,415.167 447.5,396.5 Z"/></g>
<g><path style="opacity:0.908" fill="#08d1c9" d="M 431.5,418.5 C 427.833,424.167 423.167,428.833 417.5,432.5C 421.806,427.527 426.473,422.86 431.5,418.5 Z"/></g>
<g><path style="opacity:0.902" fill="#09d1ca" d="M 69.5,420.5 C 69.8333,420.5 70.1667,420.5 70.5,420.5C 72.8333,423.5 75.5,426.167 78.5,428.5C 78.5,428.833 78.5,429.167 78.5,429.5C 74.5,427.5 71.5,424.5 69.5,420.5 Z"/></g>
<g><path style="opacity:0.91" fill="#06bec0" d="M 450.5,389.5 C 449.957,392.038 448.957,394.372 447.5,396.5C 432.167,415.167 415.167,432.167 396.5,447.5C 394.596,447.738 393.262,448.738 392.5,450.5C 391.5,450.5 390.5,450.5 389.5,450.5C 412.833,433.167 433.167,412.833 450.5,389.5 Z"/></g>
<g><path style="opacity:0.902" fill="#08cec8" d="M 78.5,428.5 C 79.8333,429.5 81.1667,430.5 82.5,431.5C 82.8333,432.167 83.1667,432.833 83.5,433.5C 81.2512,432.92 79.5846,431.587 78.5,429.5C 78.5,429.167 78.5,428.833 78.5,428.5 Z"/></g>
<g><path style="opacity:0.906" fill="#07c2c2" d="M 82.5,431.5 C 83.8333,431.833 85.1667,432.167 86.5,432.5C 87.1667,432.5 87.5,432.833 87.5,433.5C 87.8333,434.167 88.1667,434.833 88.5,435.5C 87.8333,435.5 87.1667,435.5 86.5,435.5C 86.0269,434.094 85.0269,433.427 83.5,433.5C 83.1667,432.833 82.8333,432.167 82.5,431.5 Z"/></g>
<g><path style="opacity:0.902" fill="#08cfc9" d="M 83.5,433.5 C 85.0269,433.427 86.0269,434.094 86.5,435.5C 89.4729,437.806 92.1395,440.473 94.5,443.5C 91.7318,441.913 89.0652,440.08 86.5,438C 84.8588,436.871 83.8588,435.371 83.5,433.5 Z"/></g>
<g><path style="opacity:0.91" fill="#06bec0" d="M 87.5,433.5 C 99.6373,443.313 112.304,452.313 125.5,460.5C 123.784,460.371 122.117,460.038 120.5,459.5C 118.853,457.674 116.853,456.34 114.5,455.5C 113.833,455.5 113.167,455.5 112.5,455.5C 112.167,454.833 111.833,454.167 111.5,453.5C 111.027,452.094 110.027,451.427 108.5,451.5C 101.569,446.577 94.9025,441.244 88.5,435.5C 88.1667,434.833 87.8333,434.167 87.5,433.5 Z"/></g>
<g><path style="opacity:0.907" fill="#08cfc9" d="M 417.5,432.5 C 414.052,437.287 409.719,440.954 404.5,443.5C 407.903,438.766 412.236,435.099 417.5,432.5 Z"/></g>
<g><path style="opacity:0.902" fill="#08d0c9" d="M 96.5,445.5 C 98.1788,445.285 99.1788,445.952 99.5,447.5C 97.9731,447.573 96.9731,446.906 96.5,445.5 Z"/></g>
<g><path style="opacity:0.907" fill="#08cfc9" d="M 402.5,444.5 C 402.586,445.496 402.252,446.329 401.5,447C 399.595,448.421 397.595,449.588 395.5,450.5C 395.557,449.391 395.89,448.391 396.5,447.5C 398.5,446.5 400.5,445.5 402.5,444.5 Z"/></g>
<g><path style="opacity:0.906" fill="#07c7c5" d="M 86.5,435.5 C 87.1667,435.5 87.8333,435.5 88.5,435.5C 94.9025,441.244 101.569,446.577 108.5,451.5C 107.833,451.5 107.167,451.5 106.5,451.5C 104.167,450.167 101.833,448.833 99.5,447.5C 99.1788,445.952 98.1788,445.285 96.5,445.5C 95.8333,444.833 95.1667,444.167 94.5,443.5C 92.1395,440.473 89.4729,437.806 86.5,435.5 Z"/></g>
<g><path style="opacity:0.906" fill="#07c7c5" d="M 396.5,447.5 C 395.89,448.391 395.557,449.391 395.5,450.5C 394.391,450.557 393.391,450.89 392.5,451.5C 392.5,451.167 392.5,450.833 392.5,450.5C 393.262,448.738 394.596,447.738 396.5,447.5 Z"/></g>
<g><path style="opacity:0.902" fill="#08ccc7" d="M 106.5,451.5 C 107.167,451.5 107.833,451.5 108.5,451.5C 108.833,452.167 109.167,452.833 109.5,453.5C 107.821,453.715 106.821,453.048 106.5,451.5 Z"/></g>
<g><path style="opacity:0.906" fill="#07c3c3" d="M 108.5,451.5 C 110.027,451.427 111.027,452.094 111.5,453.5C 110.833,453.5 110.167,453.5 109.5,453.5C 109.167,452.833 108.833,452.167 108.5,451.5 Z"/></g>
<g><path style="opacity:0.902" fill="#08ccc7" d="M 392.5,451.5 C 392.179,453.048 391.179,453.715 389.5,453.5C 389.973,452.094 390.973,451.427 392.5,451.5 Z"/></g>
<g><path style="opacity:0.904" fill="#08cac6" d="M 109.5,453.5 C 110.167,453.5 110.833,453.5 111.5,453.5C 111.833,454.167 112.167,454.833 112.5,455.5C 110.973,455.573 109.973,454.906 109.5,453.5 Z"/></g>
<g><path style="opacity:0.906" fill="#07c1c2" d="M 389.5,450.5 C 390.5,450.5 391.5,450.5 392.5,450.5C 392.5,450.833 392.5,451.167 392.5,451.5C 390.973,451.427 389.973,452.094 389.5,453.5C 387.821,453.285 386.821,453.952 386.5,455.5C 384.973,455.427 383.973,456.094 383.5,457.5C 382.833,457.5 382.167,457.5 381.5,457.5C 381.833,456.833 382.167,456.167 382.5,455.5C 384.531,453.478 386.865,451.811 389.5,450.5 Z"/></g>
<g><path style="opacity:0.906" fill="#07c8c5" d="M 389.5,453.5 C 389.027,454.906 388.027,455.573 386.5,455.5C 386.821,453.952 387.821,453.285 389.5,453.5 Z"/></g>
<g><path style="opacity:0.906" fill="#08cac6" d="M 112.5,455.5 C 113.167,455.5 113.833,455.5 114.5,455.5C 114.833,456.167 115.167,456.833 115.5,457.5C 113.973,457.573 112.973,456.906 112.5,455.5 Z"/></g>
<g><path style="opacity:0.906" fill="#07c5c4" d="M 114.5,455.5 C 116.853,456.34 118.853,457.674 120.5,459.5C 119.833,459.5 119.167,459.5 118.5,459.5C 117.29,459.068 116.29,458.401 115.5,457.5C 115.167,456.833 114.833,456.167 114.5,455.5 Z"/></g>
<g><path style="opacity:0.91" fill="#06bdc0" d="M 382.5,455.5 C 382.167,456.167 381.833,456.833 381.5,457.5C 379.973,457.427 378.973,458.094 378.5,459.5C 376.883,460.038 375.216,460.371 373.5,460.5C 376.24,458.44 379.24,456.774 382.5,455.5 Z"/></g>
<g><path style="opacity:0.902" fill="#08cbc6" d="M 386.5,455.5 C 386.027,456.906 385.027,457.573 383.5,457.5C 383.973,456.094 384.973,455.427 386.5,455.5 Z"/></g>
<g><path style="opacity:0.906" fill="#07c4c3" d="M 381.5,457.5 C 381.167,458.167 380.833,458.833 380.5,459.5C 379.833,459.5 379.167,459.5 378.5,459.5C 378.973,458.094 379.973,457.427 381.5,457.5 Z"/></g>
<g><path style="opacity:0.902" fill="#08cbc6" d="M 381.5,457.5 C 382.167,457.5 382.833,457.5 383.5,457.5C 383.027,458.906 382.027,459.573 380.5,459.5C 380.833,458.833 381.167,458.167 381.5,457.5 Z"/></g>
<g><path style="opacity:0.902" fill="#08cbc7" d="M 118.5,459.5 C 119.167,459.5 119.833,459.5 120.5,459.5C 120.833,460.167 121.167,460.833 121.5,461.5C 119.973,461.573 118.973,460.906 118.5,459.5 Z"/></g>
<g><path style="opacity:0.91" fill="#07c2c2" d="M 120.5,459.5 C 122.117,460.038 123.784,460.371 125.5,460.5C 126.167,460.5 126.5,460.833 126.5,461.5C 126.833,462.167 127.167,462.833 127.5,463.5C 126.167,463.167 124.833,462.833 123.5,462.5C 123.158,461.662 122.492,461.328 121.5,461.5C 121.167,460.833 120.833,460.167 120.5,459.5 Z"/></g>
<g><path style="opacity:0.902" fill="#08ccc7" d="M 378.5,459.5 C 379.167,459.5 379.833,459.5 380.5,459.5C 380.027,460.906 379.027,461.573 377.5,461.5C 377.833,460.833 378.167,460.167 378.5,459.5 Z"/></g>
<g><path style="opacity:0.902" fill="#08cec8" d="M 121.5,461.5 C 122.492,461.328 123.158,461.662 123.5,462.5C 123.5,462.833 123.5,463.167 123.5,463.5C 122.167,463.5 121.5,462.833 121.5,461.5 Z"/></g>
<g><path style="opacity:0.906" fill="#07c6c5" d="M 123.5,463.5 C 123.5,463.167 123.5,462.833 123.5,462.5C 124.833,462.833 126.167,463.167 127.5,463.5C 129.027,463.427 130.027,464.094 130.5,465.5C 128.5,465.167 126.5,464.833 124.5,464.5C 124.5,463.833 124.167,463.5 123.5,463.5 Z"/></g>
<g><path style="opacity:0.91" fill="#06bec0" d="M 126.5,461.5 C 131.667,463.916 136.667,466.582 141.5,469.5C 140.5,469.5 139.5,469.5 138.5,469.5C 136.151,467.659 133.485,466.326 130.5,465.5C 130.027,464.094 129.027,463.427 127.5,463.5C 127.167,462.833 126.833,462.167 126.5,461.5 Z"/></g>
<g><path style="opacity:0.902" fill="#08cfc9" d="M 124.5,464.5 C 126.5,464.833 128.5,465.167 130.5,465.5C 130.5,466.167 130.5,466.833 130.5,467.5C 128.181,467.008 126.181,466.008 124.5,464.5 Z"/></g>
<g><path style="opacity:0.904" fill="#08cdc8" d="M 377.5,461.5 C 374.824,463.817 371.824,465.817 368.5,467.5C 367.833,467.5 367.167,467.5 366.5,467.5C 369.678,464.742 373.345,462.742 377.5,461.5 Z"/></g>
<g><path style="opacity:0.902" fill="#08d1c9" d="M 130.5,467.5 C 133.331,468.079 135.664,469.412 137.5,471.5C 134.669,470.921 132.336,469.588 130.5,467.5 Z"/></g>
<g><path style="opacity:0.906" fill="#08d1c9" d="M 366.5,467.5 C 367.167,467.5 367.833,467.5 368.5,467.5C 366.664,469.588 364.331,470.921 361.5,471.5C 362.984,469.926 364.651,468.593 366.5,467.5 Z"/></g>
<g><path style="opacity:0.91" fill="#06c0c1" d="M 378.5,459.5 C 378.167,460.167 377.833,460.833 377.5,461.5C 373.345,462.742 369.678,464.742 366.5,467.5C 365.127,467.343 363.793,467.51 362.5,468C 359.82,470.11 357.154,471.943 354.5,473.5C 349.884,473.466 346.218,475.133 343.5,478.5C 342.5,478.5 341.5,478.5 340.5,478.5C 340.833,477.833 341.167,477.167 341.5,476.5C 352.38,471.727 363.047,466.393 373.5,460.5C 375.216,460.371 376.883,460.038 378.5,459.5 Z"/></g>
<g><path style="opacity:0.904" fill="#07c9c6" d="M 130.5,465.5 C 133.485,466.326 136.151,467.659 138.5,469.5C 140.5,470.833 142.5,472.167 144.5,473.5C 142.079,473.122 139.746,472.455 137.5,471.5C 135.664,469.412 133.331,468.079 130.5,467.5C 130.5,466.833 130.5,466.167 130.5,465.5 Z"/></g>
<g><path style="opacity:0.91" fill="#07c1c2" d="M 138.5,469.5 C 139.5,469.5 140.5,469.5 141.5,469.5C 143.284,469.893 144.95,470.559 146.5,471.5C 146.5,472.167 146.5,472.833 146.5,473.5C 145.833,473.5 145.167,473.5 144.5,473.5C 142.5,472.167 140.5,470.833 138.5,469.5 Z"/></g>
<g><path style="opacity:0.904" fill="#07c8c6" d="M 366.5,467.5 C 364.651,468.593 362.984,469.926 361.5,471.5C 359.254,472.455 356.921,473.122 354.5,473.5C 357.154,471.943 359.82,470.11 362.5,468C 363.793,467.51 365.127,467.343 366.5,467.5 Z"/></g>
<g><path style="opacity:0.906" fill="#07c7c5" d="M 144.5,473.5 C 145.167,473.5 145.833,473.5 146.5,473.5C 151.773,474.803 156.44,477.136 160.5,480.5C 158.784,480.371 157.117,480.038 155.5,479.5C 152.912,477.375 149.912,476.042 146.5,475.5C 145.833,474.833 145.167,474.167 144.5,473.5 Z"/></g>
<g><path style="opacity:0.91" fill="#06bfc1" d="M 146.5,471.5 C 157.763,476.251 169.097,480.584 180.5,484.5C 178.833,484.5 177.167,484.5 175.5,484.5C 173.735,483.539 171.735,483.205 169.5,483.5C 166.785,481.928 163.785,480.928 160.5,480.5C 156.44,477.136 151.773,474.803 146.5,473.5C 146.5,472.833 146.5,472.167 146.5,471.5 Z"/></g>
<g><path style="opacity:0.904" fill="#07c7c5" d="M 354.5,473.5 C 353.833,474.167 353.167,474.833 352.5,475.5C 349.406,476.213 346.406,477.213 343.5,478.5C 346.218,475.133 349.884,473.466 354.5,473.5 Z"/></g>
<g><path style="opacity:0.903" fill="#08d1ca" d="M 146.5,475.5 C 149.912,476.042 152.912,477.375 155.5,479.5C 152.088,478.958 149.088,477.625 146.5,475.5 Z"/></g>
<g><path style="opacity:0.906" fill="#08d1c9" d="M 352.5,475.5 C 349.912,477.625 346.912,478.958 343.5,479.5C 343.5,479.167 343.5,478.833 343.5,478.5C 346.406,477.213 349.406,476.213 352.5,475.5 Z"/></g>
<g><path style="opacity:0.904" fill="#07c7c5" d="M 340.5,478.5 C 341.5,478.5 342.5,478.5 343.5,478.5C 343.5,478.833 343.5,479.167 343.5,479.5C 342.508,479.328 341.842,479.662 341.5,480.5C 338.918,480.025 336.918,480.692 335.5,482.5C 334.833,482.5 334.167,482.5 333.5,482.5C 332.167,482.5 330.833,482.5 329.5,482.5C 332.801,480.416 336.468,479.082 340.5,478.5 Z"/></g>
<g><path style="opacity:0.905" fill="#08cfc9" d="M 341.5,480.5 C 339.786,481.738 337.786,482.405 335.5,482.5C 336.918,480.692 338.918,480.025 341.5,480.5 Z"/></g>
<g><path style="opacity:0.902" fill="#08ccc7" d="M 160.5,480.5 C 163.785,480.928 166.785,481.928 169.5,483.5C 168.167,483.5 166.833,483.5 165.5,483.5C 163.469,483.028 161.802,482.028 160.5,480.5 Z"/></g>
<g><path style="opacity:0.903" fill="#08cac6" d="M 329.5,482.5 C 330.833,482.5 332.167,482.5 333.5,482.5C 331.485,483.924 329.152,484.59 326.5,484.5C 327.5,483.833 328.5,483.167 329.5,482.5 Z"/></g>
<g><path style="opacity:0.906" fill="#07c4c3" d="M 175.5,484.5 C 177.167,484.5 178.833,484.5 180.5,484.5C 183.274,486.281 186.274,487.615 189.5,488.5C 188.167,488.5 186.833,488.5 185.5,488.5C 184.167,488.5 182.833,488.5 181.5,488.5C 180.5,487.833 179.5,487.167 178.5,486.5C 177.5,485.833 176.5,485.167 175.5,484.5 Z"/></g>
<g><path style="opacity:0.903" fill="#08d1c9" d="M 165.5,483.5 C 166.833,483.5 168.167,483.5 169.5,483.5C 171.261,484.313 172.928,485.313 174.5,486.5C 171.215,486.072 168.215,485.072 165.5,483.5 Z"/></g>
<g><path style="opacity:0.902" fill="#07c9c6" d="M 169.5,483.5 C 171.735,483.205 173.735,483.539 175.5,484.5C 176.5,485.167 177.5,485.833 178.5,486.5C 177.167,486.5 175.833,486.5 174.5,486.5C 172.928,485.313 171.261,484.313 169.5,483.5 Z"/></g>
<g><path style="opacity:0.906" fill="#06bfc1" d="M 180.5,484.5 C 188.982,486.372 197.315,488.372 205.5,490.5C 202.833,490.5 200.167,490.5 197.5,490.5C 194.572,490.435 191.905,489.768 189.5,488.5C 186.274,487.615 183.274,486.281 180.5,484.5 Z"/></g>
<g><path style="opacity:0.904" fill="#07c7c5" d="M 323.5,484.5 C 323.167,485.167 322.833,485.833 322.5,486.5C 320.958,487.301 319.292,487.634 317.5,487.5C 318.784,485.386 320.784,484.386 323.5,484.5 Z"/></g>
<g><path style="opacity:0.902" fill="#08cbc7" d="M 323.5,484.5 C 324.5,484.5 325.5,484.5 326.5,484.5C 325.486,485.674 324.153,486.34 322.5,486.5C 322.833,485.833 323.167,485.167 323.5,484.5 Z"/></g>
<g><path style="opacity:0.905" fill="#09d1ca" d="M 174.5,486.5 C 175.833,486.5 177.167,486.5 178.5,486.5C 179.5,487.167 180.5,487.833 181.5,488.5C 178.848,488.59 176.515,487.924 174.5,486.5 Z"/></g>
<g><path style="opacity:0.905" fill="#08cac6" d="M 185.5,488.5 C 186.833,488.5 188.167,488.5 189.5,488.5C 191.905,489.768 194.572,490.435 197.5,490.5C 197.5,490.833 197.5,491.167 197.5,491.5C 193.163,491.416 189.163,490.416 185.5,488.5 Z"/></g>
<g><path style="opacity:0.907" fill="#08cfc9" d="M 317.5,487.5 C 315.91,489.821 313.577,490.821 310.5,490.5C 311.5,489.833 312.5,489.167 313.5,488.5C 314.568,487.566 315.901,487.232 317.5,487.5 Z"/></g>
<g><path style="opacity:0.908" fill="#07c4c3" d="M 197.5,490.5 C 200.167,490.5 202.833,490.5 205.5,490.5C 205.833,490.5 206.167,490.5 206.5,490.5C 207.167,491.167 207.833,491.833 208.5,492.5C 206.5,492.5 204.5,492.5 202.5,492.5C 200.585,492.784 198.919,492.451 197.5,491.5C 197.5,491.167 197.5,490.833 197.5,490.5 Z"/></g>
<g><path style="opacity:0.902" fill="#08cbc7" d="M 313.5,488.5 C 312.5,489.167 311.5,489.833 310.5,490.5C 307.518,490.963 304.518,491.296 301.5,491.5C 305.239,489.898 309.239,488.898 313.5,488.5 Z"/></g>
<g><path style="opacity:0.906" fill="#06bfc1" d="M 341.5,476.5 C 341.167,477.167 340.833,477.833 340.5,478.5C 336.468,479.082 332.801,480.416 329.5,482.5C 328.5,483.167 327.5,483.833 326.5,484.5C 325.5,484.5 324.5,484.5 323.5,484.5C 320.784,484.386 318.784,485.386 317.5,487.5C 315.901,487.232 314.568,487.566 313.5,488.5C 309.239,488.898 305.239,489.898 301.5,491.5C 299.585,491.216 297.919,491.549 296.5,492.5C 294.5,492.5 292.5,492.5 290.5,492.5C 287.15,492.614 283.817,492.947 280.5,493.5C 278.667,493.585 277.334,494.252 276.5,495.5C 262.5,495.5 248.5,495.5 234.5,495.5C 225.993,494.355 217.326,493.355 208.5,492.5C 207.833,491.833 207.167,491.167 206.5,490.5C 252.755,497.99 297.755,493.324 341.5,476.5 Z"/></g>
<g><path style="opacity:0.904" fill="#08cbc7" d="M 202.5,492.5 C 204.5,492.5 206.5,492.5 208.5,492.5C 209.167,493.167 209.833,493.833 210.5,494.5C 209.5,494.5 208.5,494.5 207.5,494.5C 205.833,493.833 204.167,493.167 202.5,492.5 Z"/></g>
<g><path style="opacity:0.904" fill="#08cbc7" d="M 290.5,492.5 C 292.5,492.5 294.5,492.5 296.5,492.5C 294.833,493.167 293.167,493.833 291.5,494.5C 290.5,494.5 289.5,494.5 288.5,494.5C 289.167,493.833 289.833,493.167 290.5,492.5 Z"/></g>
<g><path style="opacity:0.906" fill="#07c5c4" d="M 208.5,492.5 C 217.326,493.355 225.993,494.355 234.5,495.5C 230.5,495.5 226.5,495.5 222.5,495.5C 218.5,495.167 214.5,494.833 210.5,494.5C 209.833,493.833 209.167,493.167 208.5,492.5 Z"/></g>
<g><path style="opacity:0.904" fill="#07c7c5" d="M 290.5,492.5 C 289.833,493.167 289.167,493.833 288.5,494.5C 284.5,494.833 280.5,495.167 276.5,495.5C 277.334,494.252 278.667,493.585 280.5,493.5C 283.817,492.947 287.15,492.614 290.5,492.5 Z"/></g>
<g><path style="opacity:0.907" fill="#08d1c9" d="M 207.5,494.5 C 208.5,494.5 209.5,494.5 210.5,494.5C 214.5,494.833 218.5,495.167 222.5,495.5C 222.5,495.833 222.5,496.167 222.5,496.5C 217.269,496.556 212.269,495.889 207.5,494.5 Z"/></g>
<g><path style="opacity:0.907" fill="#08d1c9" d="M 288.5,494.5 C 289.5,494.5 290.5,494.5 291.5,494.5C 286.731,495.889 281.731,496.556 276.5,496.5C 276.5,496.167 276.5,495.833 276.5,495.5C 280.5,495.167 284.5,494.833 288.5,494.5 Z"/></g>
<g><path style="opacity:0.902" fill="#07c9c6" d="M 222.5,496.5 C 222.5,496.167 222.5,495.833 222.5,495.5C 226.5,495.5 230.5,495.5 234.5,495.5C 248.5,495.5 262.5,495.5 276.5,495.5C 276.5,495.833 276.5,496.167 276.5,496.5C 258.5,497.833 240.5,497.833 222.5,496.5 Z"/></g>
</svg>
