<?xml version="1.0" encoding="UTF-8"?>
<svg xmlns="http://www.w3.org/2000/svg" xmlns:xlink="http://www.w3.org/1999/xlink" width="96px" height="96px" viewBox="0 0 96 96" version="1.1">
<g id="surface1">
<path style=" stroke:none;fill-rule:nonzero;fill:rgb(2.745098%,77.254903%,76.47059%);fill-opacity:1;" d="M 47.261719 -0.101562 C 47.902344 -0.0976562 48.542969 -0.101562 49.1875 -0.105469 C 62.121094 -0.121094 73.746094 5.835938 82.789062 14.785156 C 83.878906 15.878906 84.886719 17.011719 85.824219 18.238281 C 85.945312 18.394531 85.945312 18.394531 86.066406 18.554688 C 91.222656 25.265625 94.59375 33.089844 95.808594 41.472656 C 95.84375 41.699219 95.875 41.925781 95.910156 42.164062 C 96.03125 43.160156 96.039062 44.160156 96.046875 45.164062 C 96.046875 45.375 96.050781 45.578125 96.050781 45.792969 C 96.113281 54.332031 96.113281 54.332031 95.230469 57.984375 C 95.160156 58.289062 95.160156 58.289062 95.089844 58.601562 C 93.269531 66.277344 89.804688 73.292969 84.671875 79.296875 C 84.542969 79.445312 84.417969 79.59375 84.289062 79.746094 C 82.226562 82.089844 80.03125 84.296875 77.515625 86.152344 C 77.179688 86.402344 76.847656 86.660156 76.515625 86.917969 C 74.558594 88.425781 72.453125 89.652344 70.269531 90.816406 C 70.035156 90.941406 70.035156 90.941406 69.792969 91.074219 C 65.460938 93.351562 60.691406 94.835938 55.871094 95.617188 C 55.675781 95.648438 55.476562 95.6875 55.273438 95.722656 C 53.085938 96.070312 50.902344 96.070312 48.691406 96.070312 C 48.03125 96.074219 47.375 96.078125 46.714844 96.085938 C 34.675781 96.148438 22.996094 91.097656 14.398438 82.75 C 14.289062 82.648438 14.179688 82.542969 14.066406 82.433594 C 12.523438 80.957031 11.128906 79.429688 9.855469 77.714844 C 9.597656 77.375 9.34375 77.042969 9.082031 76.707031 C 3.542969 69.507812 0 59.886719 -0.0390625 50.78125 C -0.0390625 50.570312 -0.0390625 50.359375 -0.0429688 50.144531 C -0.0429688 49.703125 -0.0429688 49.261719 -0.046875 48.816406 C -0.046875 48.152344 -0.0546875 47.492188 -0.0585938 46.828125 C -0.078125 43.328125 0.253906 39.976562 1.101562 36.574219 C 1.152344 36.375 1.203125 36.175781 1.253906 35.972656 C 2.6875 30.308594 5.058594 24.929688 8.449219 20.160156 C 8.535156 20.035156 8.625 19.910156 8.714844 19.785156 C 10.046875 17.90625 11.503906 16.195312 13.105469 14.550781 C 13.429688 14.21875 13.75 13.882812 14.070312 13.546875 C 15.382812 12.1875 16.769531 10.984375 18.28125 9.855469 C 18.621094 9.601562 18.957031 9.34375 19.292969 9.078125 C 27.183594 3.011719 37.359375 -0.175781 47.261719 -0.101562 Z M 35.136719 25.152344 C 35.023438 25.214844 34.914062 25.277344 34.796875 25.339844 C 31.207031 27.382812 28.125 30.300781 25.917969 33.792969 C 25.84375 33.910156 25.769531 34.027344 25.691406 34.152344 C 22.070312 39.972656 20.921875 47.273438 22.464844 53.953125 C 23.058594 56.414062 23.90625 58.660156 25.152344 60.863281 C 25.246094 61.03125 25.246094 61.03125 25.34375 61.203125 C 27.382812 64.792969 30.300781 67.875 33.792969 70.078125 C 33.910156 70.15625 34.027344 70.230469 34.152344 70.304688 C 39.972656 73.929688 47.273438 75.078125 53.953125 73.535156 C 56.414062 72.941406 58.660156 72.097656 60.863281 70.847656 C 60.976562 70.785156 61.089844 70.722656 61.203125 70.65625 C 64.792969 68.617188 67.875 65.699219 70.078125 62.207031 C 70.191406 62.03125 70.191406 62.03125 70.308594 61.851562 C 73.929688 56.023438 75.078125 48.726562 73.535156 42.046875 C 72.941406 39.585938 72.09375 37.339844 70.847656 35.136719 C 70.753906 34.96875 70.753906 34.96875 70.65625 34.796875 C 68.617188 31.207031 65.699219 28.125 62.207031 25.917969 C 62.089844 25.84375 61.972656 25.769531 61.851562 25.691406 C 53.855469 20.71875 43.320312 20.519531 35.136719 25.152344 Z M 35.136719 25.152344 "/>
</g>
</svg>
